<svg width="20" height="20" viewBox="0 0 20 20" fill="none" xmlns="http://www.w3.org/2000/svg">
<path d="M15.1389 11.9832C14.5791 11.8628 14.1363 12.1227 13.7442 12.3497C13.3427 12.5836 12.5791 13.203 12.1415 13.0444C9.90074 12.1218 7.79328 10.1606 6.88099 7.91088C6.7202 7.46388 7.33671 6.6955 7.56886 6.28921C7.79414 5.89593 8.04865 5.44893 7.93257 4.88498C7.82767 4.37821 6.47085 2.65173 5.99106 2.17961C5.67464 1.86775 5.35049 1.69622 5.01773 1.6685C3.76667 1.61479 2.36943 3.28411 2.12438 3.68346C1.51046 4.53501 1.5139 5.6681 2.1347 7.04201C3.63081 10.7323 9.28939 16.3016 12.9936 17.854C13.6771 18.1736 14.3022 18.3339 14.8637 18.3339C15.4131 18.3339 15.9024 18.1806 16.3229 17.8765C16.6401 17.6937 18.3779 16.2271 18.3323 14.9424C18.3048 14.615 18.1337 14.2875 17.8258 13.9705C17.3572 13.4862 15.6419 12.0889 15.1389 11.9832Z" fill="#595959"/>
</svg>
