<svg width="218" height="120" viewBox="0 0 218 120" fill="none" xmlns="http://www.w3.org/2000/svg">
<rect x="0.5" y="0.5" width="217" height="119" rx="11.5" fill="white" stroke="#E2E2E2"/>
<path d="M105.504 29.6664C103.136 29.6611 100.767 29.7003 98.4008 29.6372C96.0114 29.5734 93.7341 29.0003 91.6681 27.7544C90.415 26.9987 89.3783 26.0198 88.7946 24.6365C88.7261 24.4744 88.6644 24.3064 88.6272 24.1344C88.5063 23.5679 88.8988 23.0619 89.4753 23.0274C89.5855 23.0207 89.6964 23.0254 89.8073 23.0254C99.4248 23.0254 109.042 23.0247 118.659 23.0254C119.246 23.0254 119.828 22.9517 120.416 22.9669C124.342 23.0719 128.026 24.0129 131.352 26.154C135.033 28.5228 137.708 31.7397 139.318 35.814C140.64 39.1571 140.98 42.6191 140.48 46.176C140.076 49.0575 139.099 51.7226 137.53 54.1691C135.862 56.7724 133.696 58.873 131.046 60.4675C128.525 61.985 125.79 62.8676 122.867 63.1943C121.73 63.3218 120.593 63.3072 119.454 63.3072C107.036 63.3039 94.6187 63.3039 82.202 63.3072C81.5738 63.3072 81.0451 63.1312 80.6925 62.5853C80.3166 62.0029 80.3133 61.3806 80.6175 60.783C80.9183 60.1926 81.4456 59.919 82.1123 59.919C90.933 59.9196 99.7536 59.9196 108.574 59.9196C108.808 59.9196 108.905 59.619 108.717 59.4799C108.2 59.0976 107.722 58.726 107.266 58.3264C106.424 57.588 105.648 56.7857 104.949 55.9124C104.762 55.6793 104.565 55.601 104.275 55.6016C101.276 55.6103 98.2766 55.6076 95.2775 55.6056C94.5344 55.6049 93.9314 55.1965 93.7056 54.553C93.4459 53.8125 93.6538 53.0189 94.2355 52.5713C94.5523 52.3276 94.9143 52.2207 95.318 52.2213C97.5534 52.2266 99.7894 52.224 102.025 52.222C102.287 52.222 102.413 51.9812 102.307 51.7418C102.161 51.4138 102.016 51.0875 101.882 50.7563C100.634 47.6722 100.187 44.4746 100.511 41.1634C100.761 38.5992 101.478 36.1779 102.665 33.8934C102.98 33.2864 103.474 32.9789 104.16 32.9789C106.241 32.9803 108.321 32.9809 110.402 32.9783C110.638 32.9783 110.852 33.0155 110.946 33.2632C111.033 33.4923 110.968 33.6862 110.795 33.8655C109.238 35.4819 108.156 37.3813 107.549 39.5336C106.926 41.7458 106.876 43.9878 107.405 46.2291C108.046 48.9407 109.389 51.2564 111.456 53.1232C114.345 55.7311 117.754 56.9677 121.632 56.6044C126.884 56.113 130.68 53.3915 132.877 48.6206C134.585 44.9116 134.487 41.1149 132.747 37.4138C131.248 34.2255 128.815 31.9742 125.557 30.64C123.999 30.0018 122.366 29.6717 120.674 29.6797C120.576 29.6724 120.477 29.6598 120.378 29.6598C115.508 29.6571 110.638 29.6558 105.768 29.6544C105.68 29.6544 105.592 29.6624 105.504 29.6664Z" fill="#E91F27"/>
<path d="M130.904 43.0926C130.93 48.7063 126.375 53.1571 120.996 53.2999C115.187 53.4546 110.497 48.7129 110.517 43.092C110.537 37.5447 115.078 32.9252 120.565 32.9159C126.323 32.9073 130.893 37.4046 130.904 43.0926ZM117.211 40.7776C117.204 40.7776 117.199 40.7723 117.199 40.7655C117.199 40.7587 117.193 40.753 117.187 40.753C116.516 40.753 115.845 40.755 115.175 40.7517C114.956 40.7503 114.772 40.8068 114.705 41.0339C114.635 41.2677 114.749 41.4337 114.936 41.5698C115.964 42.3163 116.99 43.0654 118.015 43.8158C118.425 44.1167 118.444 44.199 118.281 44.6805C117.882 45.8633 117.487 47.0467 117.093 48.2308C117.021 48.4453 116.96 48.6724 117.175 48.8398C117.404 49.0177 117.605 48.8975 117.805 48.7534C118.846 48.0043 119.894 47.2665 120.93 46.5114C121.195 46.3182 121.409 46.3148 121.674 46.5134C122.709 47.2884 123.756 48.0468 124.798 48.8119C124.986 48.9493 125.183 49.0523 125.402 48.8929C125.625 48.7309 125.572 48.5144 125.501 48.2925C125.116 47.0932 124.735 45.8918 124.351 44.6924C124.196 44.2116 124.208 44.1678 124.627 43.8663C125.659 43.1232 126.688 42.3767 127.724 41.6409C127.916 41.5041 128.03 41.3513 127.973 41.1163C127.909 40.8553 127.696 40.8353 127.475 40.8333C126.181 40.8234 124.887 40.8021 123.593 40.8061C123.251 40.8074 123.07 40.6965 122.967 40.3612C122.589 39.1253 122.184 37.8973 121.794 36.6648C121.723 36.439 121.642 36.253 121.355 36.2597C121.083 36.2656 121.011 36.4496 120.942 36.6588C120.538 37.8867 120.126 39.112 119.726 40.3412C119.627 40.6454 119.461 40.7922 119.123 40.7822C118.487 40.7637 117.849 40.7774 117.211 40.7776Z" fill="#E91F27"/>
<path d="M84.3643 87.3818C84.4503 87.2867 84.6068 87.3127 84.6616 87.4287C84.8669 87.8632 85.053 88.2796 85.3418 88.6403C85.4919 88.8276 85.3305 88.9478 85.2203 89.056C84.62 89.6477 83.9306 90.1139 83.1549 90.4427C82.5692 90.691 81.9629 90.8982 81.3313 90.9713C80.8631 91.0251 80.383 90.97 79.9088 90.9832C78.5115 91.0224 77.2471 90.61 76.1214 89.8104C74.8776 88.9265 73.977 87.7517 73.4092 86.3325C73.2286 85.8803 73.1868 85.3882 73.0732 84.9173C72.9211 84.2831 73.0347 83.6495 73.0094 83.018C72.9935 82.6135 73.1077 82.1952 73.2146 81.7967C73.5812 80.4326 74.2945 79.2671 75.3172 78.2962C76.4681 77.2031 77.8454 76.6014 79.4233 76.446C80.6393 76.3265 81.834 76.4507 82.971 76.8837C83.6716 77.1506 84.3171 77.5597 84.8849 78.0618C86.1607 79.1908 87.0147 80.5661 87.3401 82.2589C87.4988 83.0844 87.453 83.9278 87.5998 84.752C87.8847 86.3544 88.6883 87.6528 90.0702 88.4942C91.5226 89.3774 93.1231 89.5415 94.7369 88.9657C95.6009 88.6576 96.3394 88.1489 96.9557 87.4137C97.5587 86.6951 97.9897 85.9281 98.1756 85.0269C98.3729 84.0719 98.3636 83.1143 98.084 82.1659C97.639 80.6578 96.6807 79.5779 95.3333 78.8115C93.9938 78.0498 92.5912 77.9947 91.1567 78.4669C90.2476 78.7664 89.5111 79.3388 88.8822 80.0528C88.6232 80.347 88.6285 80.3463 88.4718 80.0003C88.3834 79.8044 88.2712 79.6184 88.1869 79.4205C88.0773 79.1642 87.9478 78.9563 87.6164 79.0407C87.5281 79.0632 87.4597 79.0168 87.4251 78.951C87.3866 78.8786 87.469 78.8381 87.5101 78.7936C88.3695 77.8798 89.3311 77.1234 90.561 76.7608C92.123 76.3006 93.6783 76.2727 95.2396 76.7648C96.524 77.1699 97.5673 77.9104 98.4227 78.9457C99.3657 80.0873 99.9255 81.371 100.096 82.8526C100.264 84.3163 100.032 85.6983 99.4069 87.0112C98.9918 87.8819 98.3755 88.6164 97.6656 89.2699C96.6728 90.1843 95.4913 90.709 94.1684 90.8982C93.0056 91.0643 91.8447 91.0563 90.6998 90.715C89.6253 90.3949 88.6796 89.8656 87.9033 89.058C86.5452 87.6455 85.7516 85.9766 85.6799 83.9969C85.638 82.8314 85.4242 81.7217 84.7807 80.7149C83.2665 78.346 80.3312 77.4946 77.8667 78.7319C75.8385 79.7499 74.5834 82.1155 74.8683 84.3834C75.1764 86.8346 76.7683 88.6828 79.07 89.1437C81.1474 89.5601 82.9438 89.0042 84.3643 87.3818Z" fill="#050607"/>
<path d="M130.276 83.8352C128.307 83.8359 126.337 83.8365 124.368 83.8345C124.192 83.8345 124.041 83.8173 124.059 84.0822C124.182 85.9318 124.901 87.4665 126.474 88.5098C128.004 89.5252 129.654 89.5332 131.341 88.9554C132.66 88.5032 133.583 87.5841 134.295 86.4166C134.594 85.9271 134.5 86.0121 134.971 86.2379C135.26 86.3761 135.53 86.5554 135.823 86.6842C136.042 86.7805 136.028 86.8887 135.933 87.0647C134.658 89.4196 132.736 90.7983 130.022 90.9624C128.411 91.06 126.847 90.8654 125.476 89.9363C123.581 88.6526 122.52 86.8323 122.257 84.569C122.004 82.3921 122.614 80.4483 124.026 78.7787C125.539 76.9903 127.518 76.3023 129.82 76.4265C133.407 76.6197 136.149 79.298 136.469 82.93C136.548 83.8352 136.548 83.8352 135.653 83.8352C133.86 83.8345 132.068 83.8345 130.276 83.8352ZM129.372 82.2945C129.372 82.2945 129.372 82.295 129.372 82.2954C129.372 82.2958 129.372 82.2958 129.373 82.2958C130.977 82.2958 132.581 82.2938 134.186 82.2978C134.405 82.2985 134.543 82.2905 134.462 81.997C134.01 80.3699 133.061 79.1692 131.467 78.5556C129.698 77.8742 127.976 77.9665 126.366 79.0371C125.3 79.7457 124.723 80.7996 124.331 81.981C124.251 82.2228 124.275 82.3031 124.559 82.3005C126.162 82.2878 127.767 82.2945 129.372 82.2945Z" fill="#E91F27"/>
<path d="M86.3233 39.663C88.4133 39.663 90.5032 39.663 92.5931 39.663C93.3974 39.663 94.0117 40.0522 94.2408 40.707C94.5097 41.4747 94.3019 42.245 93.6809 42.7358C93.4027 42.9556 93.07 43.0439 92.72 43.0446C88.4405 43.0472 84.161 43.0506 79.8815 43.0453C78.9671 43.0439 78.3003 42.3134 78.3003 41.3511C78.2996 40.3776 78.9684 39.669 79.9207 39.6656C82.0551 39.6577 84.1896 39.663 86.3233 39.663Z" fill="#E91F27"/>
<path d="M108.327 86.55C108.379 86.6622 108.542 86.6547 108.593 86.542C109.11 85.4058 109.606 84.3179 110.1 83.2295C111.042 81.1575 111.984 79.0855 112.922 77.0115C113 76.8395 113.099 76.7538 113.297 76.7605C113.75 76.7751 114.205 76.7857 114.657 76.7698C114.928 76.7605 114.952 76.8302 114.844 77.062C114.11 78.6465 113.384 80.2364 112.657 81.8249C111.383 84.6082 110.11 87.3921 108.835 90.176C108.803 90.2464 108.77 90.3168 108.738 90.3865C108.675 90.5214 108.604 90.6396 108.423 90.6323C108.25 90.6256 108.215 90.4888 108.161 90.3719C107.657 89.2775 107.158 88.1817 106.652 87.0879C105.201 83.9481 103.748 80.8089 102.297 77.669C102.191 77.4385 102.098 77.2015 101.992 76.971C101.927 76.8296 101.958 76.7638 102.118 76.7645C102.627 76.7678 103.136 76.7758 103.645 76.7691C103.858 76.7665 103.889 76.9298 103.951 77.064C104.678 78.6399 105.401 80.2178 106.128 81.7937C106.859 83.3803 107.593 84.9648 108.327 86.55Z" fill="#E91F27"/>
<path d="M143.178 84.4539C143.178 84.4542 143.179 84.4546 143.179 84.4554C143.179 86.3915 143.172 88.3275 143.186 90.263C143.188 90.5598 143.101 90.6508 142.813 90.6349C142.438 90.6136 142.06 90.6136 141.685 90.6355C141.423 90.6508 141.373 90.5419 141.375 90.3095C141.384 89.1698 141.379 88.0302 141.379 86.8906C141.379 84.1353 141.376 81.3806 141.384 78.6252C141.385 78.3915 141.324 78.3157 141.089 78.3211C140.47 78.335 139.85 78.3211 139.231 78.3317C139.017 78.3357 138.932 78.2653 138.939 78.0461C138.95 77.7367 138.947 77.4258 138.93 77.117C138.914 76.8507 138.993 76.7485 139.284 76.7598C139.891 76.7843 140.5 76.7604 141.109 76.771C141.321 76.7744 141.386 76.7133 141.384 76.4895C141.372 74.9846 141.382 73.4797 141.372 71.9749C141.37 71.7132 141.423 71.5957 141.717 71.6169C142.091 71.6448 142.469 71.6362 142.845 71.6196C143.104 71.6083 143.185 71.698 143.183 71.9603C143.171 73.41 143.178 74.8591 143.178 76.3088C143.178 76.7657 143.178 76.7664 143.651 76.7671C144.326 76.7677 145.002 76.7777 145.676 76.7611C145.929 76.7544 146.008 76.8421 145.998 77.0818C145.985 77.4019 145.985 77.7234 145.996 78.0441C146.004 78.2566 145.933 78.333 145.712 78.3297C144.982 78.3191 144.251 78.3416 143.522 78.3231C143.24 78.3157 143.17 78.4054 143.171 78.6777C143.182 80.6026 143.177 82.5276 143.177 84.4526C143.177 84.4531 143.177 84.4537 143.178 84.4539Z" fill="#E91F27"/>
<path d="M85.4936 91.3618C85.6953 90.6619 86.6619 90.3145 87.2156 90.7878C87.2213 90.7927 87.2271 90.7976 87.2329 90.8026C87.3677 90.9175 87.3458 91.045 87.3246 91.1725C87.2316 91.7303 87.0815 92.2703 86.8484 92.7896C86.3198 93.9691 85.4651 94.8271 84.3334 95.4381C83.3247 95.9827 82.2409 96.2317 81.1132 96.2981C79.9942 96.3639 78.8918 96.2523 77.79 96.0039C75.805 95.557 74.4343 94.3848 73.5298 92.6076C73.2077 91.9754 73.2117 91.9734 73.913 91.9727C74.2783 91.9727 74.6442 91.984 75.0088 91.9681C75.1954 91.9601 75.2937 92.0504 75.372 92.1899C75.7021 92.777 76.1437 93.2678 76.6909 93.6543C77.3006 94.0846 77.9747 94.341 78.7165 94.5004C79.4569 94.6598 80.1888 94.673 80.9253 94.6431C82.5942 94.5754 83.9815 93.906 85.0188 92.5811C85.2917 92.2324 85.3721 91.7828 85.4936 91.3618Z" fill="#050607"/>
<path d="M119.202 83.687C119.202 85.8885 119.197 88.0893 119.209 90.2908C119.21 90.5704 119.13 90.6514 118.858 90.6355C118.483 90.6135 118.105 90.6189 117.73 90.6375C117.469 90.6501 117.395 90.5598 117.395 90.2981C117.405 87.7539 117.401 85.2098 117.401 82.6656C117.401 80.8074 117.405 78.9493 117.393 77.0911C117.391 76.8168 117.484 76.7524 117.736 76.765C118.123 76.7843 118.511 76.7869 118.897 76.7657C119.153 76.7518 119.208 76.8421 119.207 77.0845C119.198 79.2846 119.202 81.4855 119.202 83.687Z" fill="#E91F27"/>
<path d="M119.756 72.55C119.75 73.41 119.132 74.007 118.248 74.005C117.444 74.003 116.822 73.3588 116.823 72.5294C116.824 71.7085 117.475 71.065 118.305 71.0657C119.127 71.0663 119.76 71.7138 119.756 72.55Z" fill="#E91F27"/>
</svg>
