<svg width="218" height="120" viewBox="0 0 218 120" fill="none" xmlns="http://www.w3.org/2000/svg">
<rect x="0.5" y="0.5" width="217" height="119" rx="11.5" fill="white" stroke="#E2E2E2"/>
<path d="M109.937 30.0055C117.331 30.2425 122.893 36.4852 122.513 43.7672C122.135 51.0304 116.121 56.4559 109.084 56.1662C101.753 55.865 96.4943 49.7614 96.6342 42.8966C96.7922 35.143 103.105 29.8039 109.937 30.0055ZM120.937 42.8826C120.863 36.7675 115.942 31.5666 109.575 31.5822C103.238 31.5971 98.3129 36.6284 98.2076 42.904C98.0973 49.4545 103.33 54.6652 109.738 54.6002C115.795 54.5385 121.077 49.4397 120.937 42.8826Z" fill="#040404"/>
<path d="M58.1002 70.4061C58.1404 71.4146 58.1751 74.1871 58.1718 75.1964C58.1694 75.9214 58.2015 76.6447 58.1332 77.3713C58.0245 78.5325 57.0782 79.0369 56.266 79.2056C55.7977 79.3027 55.318 79.3324 54.8357 79.3315C52.0254 79.3241 49.2152 79.3208 46.4049 79.3348C46.0749 79.3365 46.0017 79.246 46.0025 78.9275C46.0132 74.9668 46.0132 71.0052 46 67.0445C45.9992 66.7063 46.107 66.6479 46.4172 66.6487C49.4875 66.6602 52.5587 66.6545 55.629 66.6545C55.7385 66.6545 55.8487 66.652 55.9582 66.6586C57.3432 66.7335 58.055 67.4626 58.0879 68.8484C58.1003 69.3553 58.0747 69.863 58.0986 70.3691C58.0992 70.3815 58.0997 70.3938 58.1002 70.4061ZM51.86 73.8764C51.8596 73.8764 51.8592 73.876 51.8592 73.8756C51.8592 73.8751 51.8588 73.8748 51.8584 73.8748C50.8728 73.8748 49.8872 73.8838 48.9016 73.869C48.6457 73.8649 48.5733 73.9406 48.5774 74.1924C48.5906 75.0408 48.5873 75.8901 48.5741 76.7385C48.5708 76.978 48.6556 77.0372 48.8843 77.0339C49.8562 77.0224 50.8289 77.029 51.8008 77.029C52.7595 77.029 53.7182 77.0381 54.6761 77.0274C55.4587 77.0183 55.7599 76.7048 55.7722 75.923C55.7763 75.649 55.7747 75.3758 55.7738 75.1017C55.7714 74.1216 55.522 73.8764 54.5296 73.8764C53.6395 73.8764 52.7493 73.8764 51.86 73.8764ZM51.7864 71.7401C51.7871 71.7401 51.7876 71.7395 51.7876 71.7389C51.7876 71.7382 51.7882 71.7376 51.7888 71.7376C52.748 71.7376 53.7079 71.7516 54.667 71.7335C55.4513 71.7187 55.6957 71.4496 55.6998 70.6744C55.7014 70.4136 55.7006 70.1535 55.6998 69.8926C55.6981 69.0171 55.4554 68.7471 54.5888 68.7414C52.6961 68.7299 50.8042 68.7438 48.9115 68.7315C48.6251 68.7299 48.5716 68.8352 48.5758 69.0878C48.5873 69.8556 48.593 70.6242 48.57 71.3912C48.5609 71.6981 48.677 71.75 48.9485 71.7459C49.8945 71.7319 50.8404 71.7401 51.7864 71.7401Z" fill="#040404"/>
<path d="M149.909 78.3661C150.088 78.8302 149.732 79.3273 149.235 79.3265C148.728 79.3256 148.227 79.3258 147.727 79.3322C147.507 79.3355 147.455 79.2039 147.394 79.045C146.842 77.6041 146.281 76.1665 145.74 74.7214C145.68 74.5617 145.599 74.5519 145.472 74.5519C143.936 74.5527 142.401 74.5601 140.866 74.5469C140.577 74.5445 140.612 74.7025 140.612 74.8835C140.614 76.2545 140.605 77.6255 140.619 78.9957C140.621 79.2648 140.552 79.3413 140.283 79.3331C139.653 79.3133 139.022 79.3158 138.392 79.3322C138.124 79.3396 138.022 79.2845 138.023 78.9825C138.035 74.9798 138.034 70.9771 138.027 66.9744C138.026 66.7308 138.068 66.646 138.333 66.6469C141.513 66.6567 144.694 66.6411 147.875 66.6617C148.661 66.6666 149.399 66.8732 149.827 67.6377C150.075 68.082 150.104 68.5799 150.11 69.0712C150.122 70.1262 150.129 71.1828 150.106 72.2378C150.092 72.9274 149.997 73.6014 149.399 74.082C149.167 74.268 148.898 74.3618 148.626 74.4358C148.411 74.4943 148.409 74.5749 148.479 74.751C148.961 75.9541 149.436 77.1597 149.909 78.3661ZM143.754 72.3522C144.713 72.3522 145.673 72.3604 146.631 72.3497C147.329 72.3415 147.59 72.0839 147.614 71.3894C147.63 70.8964 147.629 70.4027 147.615 69.9098C147.593 69.1461 147.369 68.9066 146.593 68.8992C144.688 68.8803 142.784 68.8918 140.88 68.8753C140.609 68.8729 140.608 69.0012 140.609 69.1996C140.616 70.1311 140.623 71.0627 140.605 71.9942C140.599 72.2757 140.662 72.3678 140.96 72.3612C141.891 72.3399 142.823 72.353 143.754 72.3522Z" fill="#040404"/>
<path d="M98.4935 72.0201C98.4848 72.0203 98.478 72.0273 98.478 72.036C98.4781 73.7441 98.4952 75.4521 98.4673 77.1594C98.4591 77.6745 98.3183 78.1913 97.9933 78.6176C97.5596 79.1854 96.9112 79.2784 96.266 79.3072C95.4859 79.3426 94.7033 79.3253 93.9223 79.3261C92.1267 79.3286 90.3302 79.3327 88.5346 79.3245C88.0006 79.322 87.4689 79.2833 86.9678 79.0603C86.1737 78.7065 86.0527 77.9683 85.921 77.2408C85.8799 77.0137 85.8799 76.7767 85.8799 76.5438C85.8774 73.3912 85.8856 70.2378 85.8684 67.0851C85.8667 66.7132 85.9729 66.6284 86.3234 66.6449C86.925 66.6745 87.5307 66.6712 88.1322 66.6449C88.4425 66.6309 88.5206 66.7198 88.5198 67.03C88.5075 69.9909 88.5132 72.9518 88.5116 75.9126C88.5116 76.8524 88.5906 76.9331 89.5476 76.9331C91.3712 76.9331 93.1948 76.9331 95.0176 76.9331C95.7508 76.9331 95.8874 76.7965 95.8874 76.0772C95.8858 73.0752 95.8907 70.0732 95.8759 67.0711C95.8743 66.7362 95.9401 66.6251 96.2973 66.6465C96.898 66.6819 97.5045 66.6794 98.1052 66.6432C98.4747 66.621 98.5191 66.7642 98.5158 67.0843C98.5003 68.7245 98.5084 70.3646 98.5084 72.0047C98.5084 72.013 98.5018 72.0199 98.4935 72.0201Z" fill="#040404"/>
<path d="M132.318 72.1171C132.311 72.1172 132.306 72.1225 132.306 72.129C132.306 73.8252 132.326 75.5214 132.298 77.2168C132.281 78.2521 131.824 78.9096 131.014 79.1639C130.649 79.2782 130.265 79.3268 129.879 79.3268C127.315 79.3284 124.75 79.3301 122.186 79.3251C121.747 79.3243 121.311 79.2642 120.897 79.1128C120.055 78.8051 119.905 78.0562 119.78 77.3057C119.731 77.0094 119.717 76.705 119.716 76.4046C119.712 73.3063 119.721 70.2072 119.703 67.1089C119.701 66.7172 119.819 66.6291 120.184 66.648C120.758 66.6785 121.337 66.6777 121.91 66.6464C122.265 66.6275 122.331 66.7517 122.329 67.0825C122.317 70.0714 122.322 73.0602 122.324 76.0491C122.324 76.7848 122.477 76.9346 123.218 76.9346C125.124 76.9354 127.03 76.9362 128.936 76.9362C129.544 76.9362 129.721 76.7617 129.721 76.1594C129.721 73.1154 129.726 70.0722 129.712 67.0282C129.71 66.7188 129.779 66.6332 130.092 66.6464C130.721 66.6735 131.353 66.6711 131.984 66.6456C132.287 66.6332 132.336 66.7394 132.334 67.0159C132.321 68.7126 132.328 70.4092 132.328 72.1059C132.328 72.1119 132.324 72.1169 132.318 72.1171Z" fill="#040404"/>
<path d="M164.542 66.6556C165.339 66.6568 165.779 67.5863 165.269 68.1998C164.293 69.3749 163.317 70.5492 162.34 71.7235C161.886 72.2675 161.442 72.8196 160.969 73.3463C160.785 73.5512 160.74 73.7611 160.741 74.017C160.747 75.662 160.733 77.3079 160.754 78.9529C160.758 79.2804 160.654 79.3413 160.36 79.3323C159.744 79.3125 159.125 79.3076 158.509 79.3339C158.173 79.3487 158.069 79.2598 158.074 78.9093C158.095 77.2914 158.08 75.6735 158.091 74.0557C158.093 73.766 158.016 73.5479 157.824 73.3183C156.435 71.6601 155.067 69.9847 153.688 68.3174C153.519 68.1143 153.35 67.9125 153.175 67.7067C152.823 67.2904 153.117 66.6535 153.662 66.6535C154.211 66.6535 154.767 66.7103 155.306 66.6387C155.951 66.5531 156.116 67.0715 156.393 67.4114C157.443 68.6984 158.461 70.0127 159.483 71.3236C159.609 71.4857 159.651 71.4635 159.768 71.3137C160.514 70.355 161.272 69.4053 162.027 68.454C162.459 67.9101 162.894 67.3694 163.329 66.8279C163.395 66.7456 163.443 66.6518 163.582 66.6518C163.9 66.654 164.219 66.6551 164.542 66.6556Z" fill="#040404"/>
<path d="M71.4875 72.9917C71.4875 71.0052 71.4949 69.0179 71.4801 67.0313C71.4777 66.7268 71.5468 66.633 71.8603 66.6462C72.4759 66.6734 73.0939 66.6742 73.7094 66.6462C74.0468 66.6306 74.1423 66.7211 74.1406 67.07C74.1258 70.2078 74.1398 73.3456 74.1217 76.4842C74.1193 76.8735 74.2336 76.9467 74.5957 76.9442C77.09 76.9278 79.5843 76.9409 82.0786 76.9253C82.425 76.9228 82.5172 77.0216 82.4983 77.3582C82.4678 77.9046 82.4818 78.4543 82.4933 79.0024C82.4983 79.2344 82.4612 79.334 82.1839 79.3332C78.7169 79.3225 75.2499 79.3241 71.7821 79.3356C71.4991 79.3365 71.4826 79.2196 71.4834 78.9949C71.49 76.9928 71.4867 74.9923 71.4875 72.9917Z" fill="#040404"/>
<path d="M116.856 79.1856C116.906 79.2413 116.839 79.3299 116.764 79.3278C115.807 79.3003 114.882 79.3895 113.958 79.2712C113.388 79.1988 113.001 78.8416 112.646 78.4335C110.492 75.9548 108.342 73.4729 106.183 70.9968C104.983 69.6192 103.77 68.2523 102.565 66.8797C102.486 66.7908 102.578 66.6489 102.696 66.6547C103.724 66.705 104.702 66.5088 105.666 66.8204C106.168 66.9826 106.462 67.3808 106.785 67.7462C108.588 69.7887 110.383 71.8378 112.184 73.8836C113.74 75.652 115.299 77.4172 116.856 79.1856Z" fill="#040404"/>
<path d="M63.1766 72.9696C63.1766 70.9823 63.1832 68.9949 63.1692 67.0084C63.1667 66.7179 63.2416 66.6397 63.5288 66.6488C64.1863 66.6702 64.8447 66.6644 65.5022 66.6488C65.7342 66.643 65.805 66.7088 65.8042 66.945C65.7984 70.974 65.7984 75.0031 65.8067 79.0321C65.8075 79.2683 65.7392 79.3366 65.5063 79.3316C64.8488 79.3176 64.1904 79.3135 63.5329 79.3333C63.2482 79.3423 63.1675 79.2642 63.1692 78.9712C63.1832 76.9715 63.1766 74.971 63.1766 72.9696Z" fill="#040404"/>
<path d="M172.566 63.2144C172.57 64.8479 171.221 66.1934 169.559 66.2131C167.971 66.2321 166.544 64.8422 166.536 63.2696C166.528 61.6418 167.885 60.2675 169.523 60.247C171.168 60.2256 172.562 61.5858 172.566 63.2144ZM170.049 65.5151C170.493 65.4242 170.377 64.4536 170.136 64.0703C170.107 64.0242 170.089 63.9699 170.057 63.9262C169.813 63.5839 169.518 63.3592 169.058 63.4226C168.883 63.4465 168.822 63.4934 168.83 63.6695C168.842 63.9567 168.818 64.2464 168.837 64.5327C168.854 64.7804 168.722 64.7854 168.534 64.7911C168.329 64.7969 168.245 64.7541 168.248 64.5229C168.262 63.6185 168.263 62.7133 168.248 61.8089C168.244 61.576 168.329 61.5414 168.529 61.5455C169.022 61.557 169.516 61.5439 170.01 61.5496C170.551 61.5554 170.902 61.8097 171.023 62.2681C171.122 62.6425 170.95 62.9651 170.477 63.2482C170.349 63.3255 170.317 63.3774 170.433 63.4876C170.723 63.7633 170.908 64.1155 171.117 64.4504C171.282 64.7146 171.447 64.7714 171.628 64.4546C171.988 63.8201 172.229 62.7174 171.398 61.7521C170.199 60.3597 168.241 60.7185 167.453 62.1076C166.841 63.1848 167.159 64.4488 168.114 65.1392C168.627 65.5092 169.36 65.6561 170.049 65.5151ZM169.51 62.8984C169.514 62.8984 169.517 62.8953 169.517 62.8914C169.517 62.8876 169.52 62.8844 169.524 62.8844C169.671 62.8848 169.82 62.8981 169.965 62.8811C170.219 62.8507 170.397 62.7281 170.41 62.4442C170.421 62.1685 170.212 62.0919 170.015 62.0681C169.692 62.0294 169.364 62.0385 169.038 62.0294C168.934 62.0261 168.865 62.0574 168.832 62.1759C168.693 62.6779 168.849 62.8984 169.354 62.8984C169.406 62.8984 169.458 62.8984 169.51 62.8984Z" fill="#040404"/>
<path d="M74.5479 85.9068C74.5347 85.9102 74.5249 85.922 74.5241 85.9355C74.476 86.825 74.4287 87.7152 74.3781 88.6047C74.3583 88.947 74.3007 89.2893 74.3147 89.6292C74.3303 90.0077 74.0843 89.9114 73.8818 89.923C73.5913 89.9394 73.6819 89.7477 73.6926 89.5913C73.788 88.1553 73.8777 86.7194 73.9789 85.2842C73.9896 85.1344 73.8917 84.8637 74.188 84.8925C74.4472 84.9172 74.7862 84.6999 74.9368 85.1558C75.3006 86.2552 75.7128 87.3382 76.0363 88.4516C76.0816 88.6103 76.2815 88.6395 76.3351 88.4834C76.3773 88.3607 76.3989 88.2361 76.4313 88.1208C76.7267 87.0683 77.1554 86.0635 77.5175 85.0348C77.6352 84.6999 78.0006 84.9353 78.2474 84.8884C78.4738 84.8456 78.4153 85.0546 78.4227 85.1731C78.5207 86.6766 78.6095 88.1817 78.7108 89.6851C78.7231 89.8703 78.6704 89.9452 78.491 89.9221C78.3141 89.8991 78.0639 90.0365 78.0491 89.6777C78.0228 89.0211 77.9685 88.3652 77.9298 87.7085C77.9017 87.2331 77.3388 87.1873 77.1818 87.6369C76.9341 88.3454 76.679 89.0515 76.437 89.7625C76.3679 89.9658 76.2132 89.8645 76.0947 89.8859C75.9457 89.9131 75.8717 89.8711 75.8141 89.6926C75.4561 88.5898 75.0389 87.5069 74.7467 86.3836C74.7064 86.2276 74.6411 86.0789 74.5855 85.9272C74.5798 85.9117 74.5639 85.9027 74.5479 85.9068Z" fill="#040404"/>
<path d="M103.9 79.3237C103.9 79.3226 103.899 79.3218 103.898 79.3218C103.569 79.3218 103.242 79.3267 102.913 79.3185C102.823 79.3169 102.698 79.3465 102.655 79.2412C102.609 79.1268 102.703 79.0346 102.772 78.954C103.218 78.4199 103.674 77.8932 104.116 77.3558C104.766 76.5683 105.404 75.7709 106.054 74.9833C106.397 74.5678 106.412 74.5653 106.787 74.9562C107.119 75.3018 107.409 75.6869 107.776 75.998C107.93 76.1289 107.947 76.277 107.824 76.4284C107.195 77.2019 106.665 78.0561 105.974 78.777C105.468 79.3037 104.796 79.372 104.105 79.3276C104.037 79.3235 103.969 79.3266 103.902 79.3267C103.901 79.3267 103.9 79.3251 103.9 79.3237Z" fill="#F8CD10"/>
<path d="M119.783 86.0208C119.751 85.9569 119.649 85.9987 119.649 86.0702C119.649 87.2843 119.644 88.4371 119.654 89.5907C119.656 89.8203 119.633 89.9314 119.354 89.9346C119.081 89.9379 119.042 89.8417 119.043 89.6055C119.052 88.1662 119.043 86.7269 119.053 85.2876C119.054 85.1559 118.925 84.905 119.183 84.8967C119.419 84.8901 119.718 84.742 119.891 85.0506C120.571 86.2644 121.416 87.3811 122.013 88.6443C122.046 88.7133 122.155 88.6738 122.155 88.5973C122.155 88.2004 122.156 87.8359 122.155 87.4708C122.152 86.703 122.153 85.9361 122.136 85.1683C122.131 84.9313 122.21 84.8737 122.445 84.8729C122.692 84.872 122.775 84.928 122.773 85.188C122.762 86.6413 122.771 88.0938 122.764 89.547C122.763 89.673 122.868 89.9009 122.641 89.9108C122.409 89.9207 122.133 90.04 121.955 89.7199C121.263 88.469 120.427 87.3013 119.783 86.0208Z" fill="#040404"/>
<path d="M110.417 87.4296C110.415 87.4298 110.415 87.4308 110.415 87.4322C110.415 88.158 110.403 88.8838 110.421 89.6088C110.428 89.8615 110.362 89.952 110.105 89.9298C109.895 89.9117 109.708 89.9561 109.729 89.6187C109.762 89.0591 109.72 88.4946 109.745 87.9333C109.757 87.6494 109.656 87.5811 109.395 87.5894C108.861 87.605 108.325 87.6099 107.791 87.5894C107.484 87.5778 107.354 87.6445 107.375 87.9901C107.408 88.5366 107.369 89.0863 107.386 89.6343C107.393 89.8754 107.315 89.9446 107.083 89.9298C106.88 89.9166 106.718 89.9446 106.721 89.6417C106.735 88.1473 106.733 86.6537 106.722 85.1593C106.721 84.9025 106.828 84.8688 107.043 84.877C107.251 84.8844 107.408 84.8671 107.391 85.1675C107.364 85.6596 107.391 86.1542 107.378 86.6471C107.372 86.8627 107.413 86.9738 107.665 86.9672C108.255 86.9516 108.845 86.9541 109.434 86.9664C109.666 86.9714 109.751 86.8899 109.745 86.6586C109.733 86.1789 109.753 85.6983 109.734 85.2194C109.724 84.9577 109.794 84.8655 110.072 84.8762C110.32 84.8861 110.435 84.919 110.426 85.2087C110.405 85.9479 110.419 86.6879 110.419 87.4271C110.419 87.4282 110.418 87.4293 110.417 87.4296Z" fill="#040404"/>
<path d="M115.556 66.742C115.635 66.8203 115.58 66.961 115.503 67.042C114.474 68.1324 113.596 69.3511 112.608 70.4761C112.44 70.667 112.3 70.7863 112.081 70.5411C111.774 70.1979 111.456 69.8638 111.138 69.5297C110.915 69.2935 110.881 69.0771 111.126 68.8179C111.654 68.2583 111.99 67.5325 112.631 67.0717C112.899 66.8791 113.193 66.7219 113.532 66.7137C114.135 66.6997 114.739 66.7005 115.342 66.7005C115.416 66.7016 115.503 66.6905 115.556 66.742Z" fill="#F8CD10"/>
<path d="M129.179 88.5209C129.179 88.7678 129.154 89.0179 129.186 89.2599C129.234 89.6195 129.084 89.7882 128.743 89.8499C128.035 89.9783 127.319 90.0606 126.629 89.8269C125.645 89.4936 125.098 88.6262 125.106 87.4503C125.113 86.3492 125.563 85.4843 126.607 85.0325C127.324 84.7223 128.082 84.7922 128.827 84.9535C129.101 85.0128 128.978 85.2193 128.947 85.3864C128.909 85.5855 128.831 85.6077 128.634 85.537C127.612 85.1691 126.647 85.425 126.118 86.2241C125.594 87.0166 125.687 88.581 126.647 89.1521C127.178 89.4681 127.768 89.4607 128.358 89.3315C128.486 89.3035 128.532 89.222 128.525 89.092C128.517 88.9414 128.523 88.7908 128.523 88.6394C128.521 87.8568 128.522 87.8444 127.761 87.8189C127.541 87.8115 127.525 87.7268 127.528 87.5507C127.53 87.3754 127.546 87.2717 127.769 87.2824C128.151 87.3013 128.537 87.2997 128.92 87.2816C129.155 87.2709 129.192 87.3754 129.183 87.5745C129.169 87.8897 129.178 88.2049 129.179 88.5209Z" fill="#040404"/>
<path d="M87.8802 85.2671C87.8672 85.9246 88.7041 86.2138 89.1141 85.6998C89.2346 85.5487 89.3543 85.3988 89.4742 85.249C89.8209 84.8152 90.1137 85.4537 89.7611 85.8828C89.5134 86.1843 89.2642 86.4814 89.0051 86.7698C88.8109 86.9862 88.8397 87.1039 88.9878 87.3195C89.3143 87.7929 89.6331 88.2715 89.952 88.7543C90.2966 89.2758 89.9325 89.9289 89.5918 89.4048C89.2643 88.9012 88.9393 88.3959 88.5986 87.9013C88.5122 87.7762 88.4653 87.4849 88.3171 87.5631C88.113 87.6717 87.8802 87.8552 87.8785 88.1548C87.8752 88.6206 87.867 89.0871 87.8818 89.5521C87.89 89.8064 87.8654 89.9438 87.5419 89.938C87.2391 89.9331 87.1914 89.8335 87.1938 89.5603C87.2078 88.1219 87.2087 86.6826 87.1938 85.2441C87.1914 84.9643 87.2539 84.8796 87.5477 84.8721C87.8818 84.8631 87.8851 85.0203 87.8802 85.2671Z" fill="#040404"/>
<path d="M114.225 85.1874C114.357 84.7744 115.11 84.7169 115.24 85.1309C115.706 86.6129 116.199 88.0876 116.679 89.5656C116.716 89.6792 116.867 89.8783 116.685 89.9013C116.483 89.9268 116.172 90.0939 116.043 89.7549C115.902 89.3862 115.76 89.0134 115.669 88.6307C115.606 88.3658 115.468 88.3287 115.239 88.337C114.869 88.351 114.499 88.3518 114.129 88.3361C113.929 88.3271 113.832 88.402 113.777 88.588C113.665 88.9657 113.543 89.3418 113.411 89.7137C113.35 89.8865 112.884 90.0174 112.749 89.9129C112.663 89.8454 112.713 89.7623 112.737 89.689C113.074 88.6653 113.41 87.6424 113.751 86.6203C113.897 86.1817 114.087 85.7538 114.192 85.3053C114.202 85.2633 114.213 85.2239 114.225 85.1874ZM115.254 87.239C115.104 86.7867 114.341 86.8011 114.183 87.2507C114.137 87.3823 114.09 87.5135 114.041 87.6441C113.991 87.7757 114.058 87.8103 114.179 87.8095C114.395 87.8077 114.612 87.8076 114.831 87.8079C115.131 87.8082 115.349 87.5235 115.254 87.239Z" fill="#040404"/>
<path d="M82.3874 85.2171C82.5414 84.7715 83.3001 84.7966 83.4436 85.2457C83.9052 86.685 84.3866 88.1169 84.8524 89.5545C84.8894 89.6681 85.059 89.8779 84.8244 89.9092C84.6212 89.9364 84.2796 90.0853 84.1982 89.7339C84.1077 89.3447 83.8986 88.9982 83.8394 88.6057C83.8073 88.3909 83.6978 88.3399 83.5061 88.3424C83.0955 88.3489 82.6848 88.3506 82.275 88.3399C82.0759 88.335 81.9862 88.4156 81.9319 88.6041C81.8224 88.9826 81.671 89.3496 81.5648 89.729C81.4554 90.1215 81.1402 89.9265 80.9608 89.9059C80.7362 89.8796 80.9197 89.673 80.9567 89.5586C81.4282 88.1218 81.9179 86.6916 82.3762 85.2507C82.3799 85.2392 82.3836 85.2281 82.3874 85.2171ZM83.5094 87.489C83.313 86.8887 82.4696 86.8924 82.2655 87.4902C82.2561 87.5178 82.2467 87.5454 82.2372 87.5729C82.1722 87.7622 82.2001 87.8182 82.3976 87.8124C82.6848 87.8034 82.9753 87.7877 83.2609 87.8157C83.5563 87.8445 83.5843 87.7194 83.5094 87.489Z" fill="#040404"/>
<path d="M92.7306 87.4114C92.7314 86.6848 92.7421 85.9582 92.7248 85.2323C92.7191 84.9748 92.7734 84.867 93.0565 84.8752C93.7411 84.8941 94.4274 84.8916 95.1121 84.8785C95.3466 84.8744 95.4108 84.9468 95.4174 85.1805C95.4248 85.4389 95.2932 85.4331 95.1146 85.4307C94.6348 85.4257 94.1542 85.4405 93.6753 85.4224C93.4358 85.4134 93.3667 85.4949 93.379 85.7244C93.3963 86.0528 93.3947 86.3828 93.3799 86.7111C93.37 86.9235 93.435 87 93.6564 86.9918C94.067 86.9753 94.4785 86.9893 94.8899 86.9868C95.1088 86.986 95.3039 86.9383 95.3047 87.3012C95.3055 87.6937 95.066 87.5851 94.8726 87.5892C94.462 87.5974 94.0505 87.5958 93.6391 87.5884C93.4539 87.5851 93.37 87.6336 93.379 87.8435C93.3963 88.2541 93.3955 88.6664 93.379 89.0771C93.37 89.3009 93.4506 89.3568 93.6638 89.3511C94.1839 89.3363 94.7056 89.3536 95.2265 89.3404C95.4405 89.3354 95.5516 89.3692 95.5409 89.6235C95.5326 89.8399 95.4981 89.9403 95.2471 89.9345C94.5073 89.9173 93.7666 89.9173 93.0268 89.9304C92.7948 89.9345 92.7207 89.8703 92.7248 89.6333C92.7388 88.8919 92.7298 88.1513 92.7306 87.4114Z" fill="#040404"/>
<path d="M131.645 87.3505C131.645 86.6379 131.655 85.9244 131.64 85.2126C131.635 84.9739 131.674 84.8702 131.948 84.8776C132.646 84.8974 133.346 84.8908 134.044 84.8768C134.266 84.8719 134.323 84.9484 134.328 85.1583C134.332 85.3772 134.258 85.4405 134.044 85.4331C133.593 85.4175 133.139 85.4413 132.687 85.4224C132.416 85.4109 132.277 85.4701 132.313 85.7779C132.358 86.168 132.146 86.6914 132.401 86.9177C132.621 87.1119 133.13 86.9777 133.512 86.9868C133.635 86.9901 133.759 86.9942 133.882 86.986C134.094 86.9712 134.234 86.9769 134.243 87.2723C134.253 87.5818 134.112 87.6007 133.88 87.5958C133.468 87.5859 133.057 87.6048 132.646 87.5867C132.404 87.576 132.297 87.6303 132.314 87.9002C132.337 88.2829 132.332 88.668 132.315 89.0515C132.304 89.2926 132.399 89.3552 132.626 89.3494C133.133 89.3354 133.64 89.3544 134.147 89.3395C134.361 89.3338 134.439 89.3955 134.439 89.6144C134.438 89.8292 134.402 89.9362 134.146 89.9304C133.421 89.9131 132.693 89.9123 131.967 89.9312C131.679 89.9386 131.625 89.8275 131.64 89.5716C131.661 89.2029 131.645 88.8318 131.645 88.4615C131.645 88.0903 131.645 87.7208 131.645 87.3505Z" fill="#040404"/>
<path d="M100.647 87.5003C100.704 86.4371 101.019 85.5862 101.955 85.0908C102.697 84.6983 103.482 84.7369 104.267 84.9385C104.509 85.0011 104.358 85.1673 104.336 85.3031C104.305 85.4891 104.244 85.5656 104.039 85.4866C103.536 85.2924 103.033 85.2924 102.52 85.4833C101.488 85.8676 101.215 87.046 101.41 87.9529C101.666 89.142 102.647 89.6843 103.88 89.3469C104.086 89.291 104.28 89.1642 104.364 89.5263C104.411 89.7329 104.364 89.8209 104.198 89.8555C103.18 90.0711 102.187 90.1336 101.351 89.3346C100.808 88.8137 100.701 88.1356 100.647 87.5003Z" fill="#040404"/>
<path d="M138.957 86.6332C138.944 86.6332 138.934 86.6435 138.934 86.6562C138.934 87.1554 138.937 87.6547 138.932 88.1539C138.931 88.3613 138.881 88.5119 138.607 88.5086C138.307 88.5053 138.37 88.3094 138.367 88.144C138.344 87.1434 138.333 86.1427 138.3 85.1429C138.292 84.9124 138.37 84.8499 138.579 84.8812C138.759 84.9083 139.004 84.789 138.986 85.1527C138.962 85.6372 138.98 86.124 138.98 86.6101C138.98 86.6228 138.97 86.6332 138.957 86.6332Z" fill="#040404"/>
<path d="M138.216 89.4806C138.237 89.2938 138.313 89.084 138.613 89.0708C138.929 89.0568 139.054 89.2494 139.062 89.53C139.07 89.8172 138.925 90.0065 138.629 89.9999C138.358 89.9941 138.213 89.823 138.216 89.4806Z" fill="#040404"/>
<path d="M108.717 41.8685C108.717 41.8724 108.714 41.8761 108.71 41.8761C107.04 41.8761 105.37 41.8695 103.7 41.8827C103.417 41.8852 103.33 41.8152 103.332 41.5198C103.344 39.2033 103.342 36.8859 103.331 34.5694C103.33 34.2896 103.393 34.204 103.69 34.2065C106.541 34.227 109.394 34.1933 112.244 34.2501C114.175 34.2888 116.337 35.705 116.988 37.6669C117.658 39.6888 117.462 41.6226 116.217 43.3656C115.343 44.5893 114.076 45.2262 112.567 45.2427C110.195 45.2682 107.824 45.241 105.452 45.2188C105.145 45.2163 105.055 45.2896 105.058 45.6031C105.076 47.0013 105.072 48.4002 105.062 49.7984C105.059 50.0716 105.119 50.1777 105.42 50.1761C108.107 50.1613 110.793 50.1621 113.48 50.1588C115.187 50.1563 116.524 48.9582 116.849 47.2687C117.031 46.3174 116.774 45.4476 116.5 44.5753C116.402 44.2634 116.412 44.1449 116.758 44.0774C117.062 44.0182 117.361 43.8923 117.641 43.7515C117.95 43.596 118.084 43.7211 118.196 43.9927C118.48 44.6823 118.65 45.3892 118.654 46.143C118.662 47.7345 118.26 49.1779 117.138 50.3473C116.121 51.4072 114.818 51.9149 113.38 51.9248C110.132 51.9478 106.883 51.8927 103.634 51.8787C103.397 51.8779 103.332 51.8104 103.333 51.5784C103.339 48.987 103.343 46.3964 103.329 43.805C103.327 43.4964 103.482 43.5252 103.683 43.5261C106.563 43.5318 109.442 43.5318 112.321 43.5384C113.293 43.5409 114.107 43.2134 114.744 42.4604C114.893 42.2851 114.905 42.2176 114.679 42.1098C114.337 41.9461 113.99 41.858 113.611 41.8588C111.982 41.8621 110.354 41.8605 108.725 41.8605C108.721 41.8605 108.717 41.864 108.717 41.8685ZM114.374 40.2514C114.976 40.3225 115.636 39.8954 115.607 39.2897C115.518 37.4422 113.957 36.063 112.284 35.9906C109.986 35.8902 107.681 35.9544 105.379 35.9371C105.123 35.9354 105.058 36.0185 105.06 36.2662C105.072 37.4447 105.078 38.6231 105.058 39.8007C105.052 40.1192 105.149 40.1809 105.448 40.1809C107.626 40.1759 109.806 40.1529 111.983 40.2138C112.77 40.235 113.571 40.1567 114.374 40.2514Z" fill="#040404"/>
</svg>
