<svg width="218" height="120" viewBox="0 0 218 120" fill="none" xmlns="http://www.w3.org/2000/svg">
<rect x="0.5" y="0.5" width="217" height="119" rx="11.5" fill="white" stroke="#E2E2E2"/>
<path d="M57.6105 78.9457C57.6107 78.9467 57.6098 78.947 57.6088 78.947C56.7973 78.947 55.9858 78.9545 55.1744 78.9395C55.0487 78.9376 54.8133 79.0295 54.8049 78.7867C54.7965 78.5297 55.0365 78.5625 55.1894 78.5747C56.4412 78.6694 56.5322 77.9427 56.7751 76.9318C56.9654 76.1404 57.0545 75.3255 57.1914 74.521C57.2992 73.8889 57.4061 73.2569 57.5243 72.6268C57.6068 72.1888 57.725 71.7575 57.7981 71.3177C58.0551 69.7751 58.2829 68.2279 58.5549 66.6882C58.7152 65.7776 58.9121 64.8746 59.0397 63.9575C59.0715 63.7296 59.1606 63.3536 59.4898 63.3142C59.7936 63.2786 59.923 63.5468 60.0702 63.7943C61.5424 66.269 62.8759 68.8234 64.3369 71.3046C65.0111 72.4495 65.675 73.6086 66.2761 74.7976C66.3295 74.9035 66.3548 75.0573 66.4993 75.0705C66.6662 75.0864 66.6596 74.9064 66.7121 74.8135C67.5317 73.3526 68.3728 71.9019 69.1427 70.4147C69.56 69.6082 69.996 68.8027 70.4236 68.0066C70.8081 67.2892 71.2282 66.5653 71.6586 65.8601C72.1003 65.1362 72.4979 64.3842 72.903 63.6377C73.0061 63.4483 73.1336 63.288 73.3503 63.303C73.5941 63.3199 73.7 63.5027 73.7422 63.7428C73.9195 64.7602 74.1164 65.7748 74.2917 66.7932C74.5215 68.1191 74.7353 69.4479 74.9603 70.7748C75.1741 72.0313 75.3861 73.2888 75.613 74.5435C75.7855 75.4962 75.8887 76.462 76.154 77.3979C76.3322 78.0243 76.6857 78.3994 77.3703 78.4791C77.796 78.5279 78.2114 78.6619 78.6484 78.6432C78.7365 78.6394 78.8613 78.6263 78.8669 78.7529C78.8716 78.8504 78.774 78.8964 78.6812 78.9273C78.3202 79.0464 77.9367 79.0473 77.5747 79.0239C76.1728 78.9329 74.769 78.9367 73.3662 78.9208C73.1815 78.9189 73.0417 78.8551 72.8964 78.7829C72.8186 78.7445 72.7295 78.6197 72.8448 78.5616C73.4196 78.2709 73.2321 77.7083 73.158 77.336C72.9574 76.3242 72.8354 75.2993 72.6507 74.2856C72.4876 73.391 72.3638 72.4795 72.2503 71.5709C72.1556 70.8141 71.9877 70.0668 71.8705 69.3128C71.8546 69.2097 71.848 69.1309 71.7552 69.0887C71.622 69.0287 71.5376 69.1394 71.487 69.2181C71.3041 69.5023 71.1288 69.793 70.9759 70.094C70.4649 71.0945 69.8994 72.0688 69.3612 73.0534C68.9073 73.8842 68.386 74.6972 67.9424 75.5356C67.4445 76.4752 66.7937 77.3304 66.3999 78.3253C66.3839 78.3666 66.3473 78.3984 66.3239 78.4369C65.9376 79.083 65.6647 79.1036 65.2849 78.4772C64.7851 77.6539 64.3144 76.8099 63.8136 75.9894C62.8618 74.4281 62.0132 72.8106 61.0923 71.2342C60.7257 70.606 60.3937 69.9617 60.0458 69.326C60.0036 69.2481 59.9389 69.1506 59.8311 69.1844C59.7148 69.2209 59.6811 69.3504 59.6783 69.4469C59.652 70.1502 59.4832 70.8329 59.3829 71.5249C59.2216 72.6418 59.0228 73.7539 58.8699 74.8717C58.7377 75.8394 58.523 76.7968 58.4892 77.7767C58.477 78.1415 58.718 78.3366 59.0378 78.4303C59.3988 78.5353 59.773 78.5654 60.1499 78.571C60.285 78.5729 60.4828 78.6029 60.4884 78.7313C60.4969 78.9245 60.2943 78.9404 60.1368 78.9404C59.2956 78.9433 58.4534 78.9414 57.6122 78.9414C57.6105 78.9414 57.6103 78.944 57.6105 78.9457Z" fill="#3A271A"/>
<path d="M108.562 48.594C108.637 47.7819 108.834 46.8123 109.34 45.8765C109.833 44.9669 110.479 44.1839 111.128 43.4149C112.132 42.225 113.298 41.1803 114.514 40.1995C115.214 39.634 115.889 39.0292 116.64 38.5397C117.561 37.9396 118.392 37.2232 119.282 36.5855C120.132 35.976 120.943 35.2989 121.798 34.6941C122.784 33.9955 123.663 33.1759 124.536 32.3601C125.172 31.7656 125.859 31.158 126.147 30.2606C126.22 30.0327 126.248 29.817 126.256 29.5863C126.26 29.4551 126.17 29.2591 126.321 29.2075C126.522 29.1381 126.551 29.3828 126.623 29.4963C127.352 30.645 127.476 31.8819 127.128 33.1806C126.677 34.861 125.637 36.1804 124.49 37.4257C122.255 39.8507 119.618 41.8049 117.006 43.7882C115.092 45.2426 113.135 46.6445 111.387 48.3052C110.856 48.8106 110.35 49.3442 109.976 49.9865C109.745 50.3822 109.561 50.792 109.594 51.2646C109.602 51.3668 109.61 51.4672 109.503 51.4972C109.365 51.5356 109.336 51.4043 109.277 51.3153C108.776 50.5538 108.587 49.7043 108.562 48.594Z" fill="#BA8E36"/>
<path d="M105.835 51.3746C105.76 51.4826 105.649 51.347 105.642 51.2161C105.576 50.0383 104.77 49.2412 103.98 48.4582C102.278 46.7703 100.324 45.3862 98.4201 43.9431C96.0186 42.122 93.6011 40.3188 91.4565 38.1883C90.7448 37.4812 90.0856 36.7311 89.4648 35.9377C88.7174 34.9813 88.107 33.9573 87.956 32.7617C87.8444 31.8812 87.701 30.9397 88.257 30.1051C88.4024 29.8876 88.378 29.5875 88.5787 29.3896C88.6424 29.3268 88.679 29.2199 88.7981 29.263C88.8937 29.2977 88.874 29.3831 88.8722 29.46C88.8544 30.1389 89.1647 30.6902 89.5623 31.2051C90.5788 32.5235 91.8945 33.524 93.1801 34.548C94.2538 35.4032 95.3706 36.2031 96.4724 37.0236C97.5349 37.8151 98.6123 38.5878 99.6635 39.3942C100.293 39.8771 100.903 40.3872 101.487 40.9236C102.537 41.8857 103.594 42.8403 104.508 43.9431C105.184 44.7598 105.828 45.6197 106.229 46.5818C106.909 48.2088 106.861 49.8517 105.835 51.3746Z" fill="#BA8E36"/>
<path d="M89.8307 37.3366C90.0804 37.4263 89.8467 37.8251 89.8985 38.0853C89.9715 38.4523 90.1373 38.7814 90.3483 39.091C91.1773 40.3091 92.3016 41.2328 93.4363 42.1405C95.8143 44.0422 98.3293 45.7648 100.684 47.6965C102.196 48.9371 103.634 50.2575 104.849 51.7934C105.78 52.9703 106.438 54.2981 106.524 55.8275C106.573 56.6912 106.372 57.5267 105.93 58.2891C105.915 58.3162 105.9 58.3472 105.877 58.3659C105.718 58.4944 105.78 58.8761 105.527 58.8179C105.321 58.7701 105.494 58.4663 105.437 58.2815C105.191 57.4695 104.728 56.7793 104.163 56.1717C102.774 54.6779 101.118 53.4945 99.5155 52.2511C97.9758 51.0555 96.4229 49.8767 94.901 48.6586C93.9576 47.9038 93.0706 47.0842 92.2763 46.1634C91.784 45.5923 91.1951 45.1037 90.7028 44.5327C89.9864 43.7018 89.4097 42.7782 89.1143 41.7054C89.0018 41.2956 88.8274 40.9093 88.7964 40.4676C88.757 39.8956 88.8086 39.3264 88.9774 38.806C89.1087 38.4009 89.1931 37.9339 89.5316 37.6066C89.63 37.511 89.6104 37.2531 89.8307 37.3366Z" fill="#BA8E36"/>
<path d="M109.818 58.0816C109.73 58.4485 109.404 58.6659 109.231 58.3305C108.631 57.1799 108.586 55.9684 108.845 54.7165C109.182 53.0943 110.231 51.9099 111.282 50.7434C113.407 48.385 115.977 46.5424 118.495 44.6444C120.303 43.2819 122.16 41.9804 123.78 40.3853C124.316 39.8573 124.813 39.2994 125.143 38.612C125.355 38.1694 125.888 37.9552 126.045 38.4202C126.081 38.5259 126.114 38.6316 126.147 38.7358C126.671 40.3618 126.21 41.8406 125.386 43.2425C124.612 44.5591 123.495 45.5859 122.437 46.6587C121.212 47.8993 119.88 49.0208 118.516 50.1001C117.447 50.9459 116.318 51.7177 115.263 52.5794C113.979 53.6278 112.62 54.588 111.439 55.7611C111.146 56.0528 110.853 56.3491 110.594 56.6717C110.249 57.102 109.946 57.5537 109.818 58.0816Z" fill="#BA8E36"/>
<path d="M159.9 78.9202C159.9 78.9111 159.893 78.9042 159.884 78.9042C158.999 78.9042 158.114 78.9088 157.23 78.8985C157.1 78.8967 156.887 79.0064 156.853 78.7626C156.826 78.5657 157.021 78.6041 157.128 78.5375C157.277 78.4447 157.485 78.3565 157.347 78.0658C156.722 76.7446 156.105 75.4187 155.528 74.0768C155.403 73.787 155.247 73.7701 155.005 73.7711C153.6 73.7758 152.192 73.8095 150.788 73.7561C150.183 73.7326 149.796 73.8742 149.611 74.4631C149.348 75.2968 148.884 76.0413 148.547 76.8431C148.419 77.1488 148.385 77.4704 148.29 77.7798C148.181 78.1352 148.503 78.5225 148.882 78.5544C149.114 78.5741 149.351 78.561 149.584 78.5732C149.707 78.5788 149.853 78.59 149.864 78.7551C149.875 78.9351 149.725 78.9314 149.601 78.9426C149.523 78.9492 149.445 78.952 149.367 78.9482C147.712 78.8826 146.056 78.922 144.401 78.9436C144.19 78.9464 143.823 79.0364 143.812 78.7738C143.797 78.4372 144.171 78.5863 144.373 78.5713C145.455 78.4925 146.228 78.0255 146.66 76.9837C147.071 75.9916 147.605 75.0492 148.006 74.0533C148.626 72.5183 149.409 71.062 150.087 69.5541C150.529 68.5686 150.968 67.5755 151.482 66.6181C151.909 65.8229 152.228 64.9705 152.598 64.1454C152.69 63.94 152.78 63.7299 152.895 63.5377C153.086 63.2217 153.41 63.2179 153.645 63.5265C153.957 63.9381 154.142 64.4201 154.358 64.8824C155.372 67.0485 156.371 69.2203 157.384 71.3864C158.121 72.9637 158.867 74.5381 159.618 76.1088C159.802 76.4933 160.021 76.8609 160.226 77.2369C160.742 78.1878 161.539 78.6285 162.622 78.5778C162.745 78.5722 162.997 78.425 162.999 78.741C163.001 79.0467 162.746 78.9229 162.62 78.9248C161.718 78.9416 160.817 78.9343 159.916 78.9342C159.908 78.9342 159.901 78.9281 159.9 78.9202ZM152.856 67.651C152.813 67.5484 152.655 67.5214 152.61 67.6234C151.918 69.2203 151.234 70.8191 150.535 72.4133C150.407 72.7068 150.507 72.7518 150.777 72.7499C152.055 72.7415 153.333 72.7377 154.611 72.7499C154.932 72.7527 154.982 72.6805 154.851 72.3823C154.349 71.2289 153.871 70.0643 153.382 68.9043C153.211 68.4961 153.04 68.088 152.856 67.651Z" fill="#3A271A"/>
<path d="M82.5674 71.3852C82.576 71.3855 82.5823 71.3784 82.5823 71.3698C82.5822 69.7189 82.5655 68.0681 82.5917 66.4173C82.6001 65.8725 82.4585 65.3502 82.4548 64.8044C82.452 64.3675 82.0272 64.1086 81.5883 64.0289C81.2826 63.9727 80.9666 63.9783 80.6562 63.9483C80.4968 63.9333 80.2558 63.9961 80.2511 63.7495C80.2455 63.4682 80.4996 63.5816 80.6412 63.5845C83.625 63.6398 86.6089 63.6595 89.5936 63.6295C90.1103 63.6248 90.6223 63.5732 91.125 63.4513C91.4081 63.3819 91.516 63.4832 91.4485 63.7589C91.2665 64.5081 91.2825 65.2789 91.1897 66.0375C91.1681 66.2157 91.2084 66.4567 90.9458 66.4736C90.6476 66.4923 90.7217 66.2382 90.7058 66.0666C90.6364 65.3174 90.3776 64.9948 89.6424 64.856C88.3755 64.6178 87.089 64.7097 85.8099 64.6685C85.6008 64.6619 85.5436 64.7669 85.5446 64.9564C85.5474 66.6124 85.5483 68.2684 85.5446 69.9253C85.5446 70.111 85.5905 70.2235 85.8034 70.2179C87.1921 70.1851 88.5837 70.2892 89.9697 70.1195C90.2472 70.0857 90.4714 69.9638 90.6645 69.7687C90.7545 69.6787 90.8568 69.5887 90.9927 69.645C91.1521 69.7115 91.0893 69.8606 91.0696 69.9713C90.9112 70.8659 90.8755 71.7708 90.8127 72.6738C90.8014 72.8332 90.8014 73.0095 90.5811 73.0086C90.387 73.0076 90.3888 72.8426 90.3663 72.7038C90.1816 71.5776 89.9378 71.3526 88.7881 71.3094C87.8514 71.2747 86.9136 71.2757 85.9769 71.241C85.6683 71.2297 85.5342 71.2963 85.5389 71.647C85.5568 73.1624 85.5352 74.6777 85.5474 76.1931C85.5568 77.3512 85.8615 77.7122 87.0055 77.8407C87.9836 77.9504 88.971 77.9569 89.95 77.8079C90.8877 77.6644 91.32 77.2583 91.5394 76.3403C91.5647 76.2344 91.5826 76.1265 91.6163 76.0234C91.6538 75.908 91.7373 75.8358 91.8648 75.8621C91.9651 75.8836 92.0223 75.9577 92.0195 76.0656C91.9961 76.9564 91.938 77.8463 91.6304 78.6912C91.5085 79.0269 91.1578 79.0128 90.8615 79.0091C89.4399 78.9941 88.0183 78.9856 86.5967 78.9453C84.8 78.8947 83.0043 78.8928 81.2076 78.9406C80.975 78.9472 80.5831 79.0288 80.5587 78.7906C80.5315 78.5215 80.916 78.6134 81.1288 78.5533C81.2892 78.5083 81.4289 78.5102 81.5921 78.5121C82.0309 78.5168 82.2841 78.1745 82.361 77.806C82.451 77.3774 82.5579 76.9442 82.5542 76.4922C82.5401 74.7954 82.5485 73.0986 82.5485 71.4017C82.5485 71.3921 82.5578 71.3849 82.5674 71.3852Z" fill="#3A271A"/>
<path d="M136.978 79.2183C136.209 79.2248 135.208 79.1507 134.25 78.7278C133.804 78.5309 133.685 78.1793 133.767 77.8201C133.967 76.9377 133.7 76.0347 133.95 75.1579C134 74.9807 133.969 74.826 134.207 74.8241C134.446 74.8222 134.487 74.9844 134.487 75.1692C134.487 75.518 134.58 75.8481 134.687 76.1744C134.825 76.5945 135.04 76.9705 135.351 77.2894C136.527 78.5 139.14 78.5928 140.401 77.4685C141.233 76.7277 141.387 75.6033 140.8 74.5709C140.379 73.831 139.732 73.3162 139.056 72.8333C138.308 72.2979 137.54 71.7887 136.802 71.2382C136.025 70.6578 135.326 69.9807 134.831 69.1434C134.252 68.1644 134.116 67.1085 134.518 66.0189C135.113 64.4032 136.433 63.7655 137.996 63.4636C139.556 63.1616 141.107 63.3201 142.654 63.5695C142.961 63.6192 143.166 63.759 143.135 64.1584C143.075 64.9358 143.079 65.7188 143.053 66.499C143.047 66.6846 143.053 66.89 142.796 66.9228C142.496 66.9613 142.563 66.7231 142.535 66.5618C142.279 65.0193 140.923 64.2935 139.559 64.2972C139.053 64.2981 138.566 64.3131 138.063 64.4557C136.883 64.7895 136.194 66.409 136.981 67.4179C137.406 67.9618 137.945 68.3557 138.492 68.7711C139.453 69.5006 140.552 70.0361 141.443 70.8453C142.261 71.5889 143.048 72.3832 143.399 73.4906C144.075 75.6202 143.033 77.7742 140.945 78.6397C139.744 79.1367 138.502 79.2567 136.978 79.2183Z" fill="#3A271A"/>
<path d="M120.304 76.7112C120.325 76.7117 120.343 76.6944 120.343 76.6732C120.343 76.188 120.35 75.7019 120.339 75.2168C120.334 74.9917 120.448 74.8473 120.64 74.8229C120.821 74.7995 120.884 74.9514 120.904 75.1324C121.156 77.3445 122.665 78.5129 124.901 78.2344C125.32 78.1819 125.73 78.0956 126.119 77.9202C127.52 77.2882 127.98 75.8554 127.199 74.5285C126.769 73.7971 126.117 73.2851 125.439 72.8049C124.637 72.2367 123.795 71.7228 123.039 71.0917C122.253 70.4372 121.502 69.7442 121.059 68.799C120.556 67.7253 120.568 66.1752 121.429 65.1203C122.424 63.9031 123.756 63.5327 125.21 63.3583C125.591 63.3124 125.979 63.2439 126.352 63.2289C126.799 63.2111 127.255 63.3583 127.719 63.3864C128.236 63.4174 128.748 63.5515 129.262 63.6481C129.465 63.6865 129.613 63.7925 129.577 64.0307C129.471 64.7443 129.556 65.4654 129.497 66.1809C129.487 66.2896 129.525 66.4172 129.479 66.5044C129.406 66.645 129.558 66.9273 129.245 66.9207C128.971 66.9151 129.002 66.69 128.976 66.51C128.831 65.5179 128.234 64.8699 127.343 64.508C126.43 64.1376 125.478 64.131 124.545 64.447C122.995 64.9731 122.588 66.5531 123.684 67.7647C124.275 68.4192 125.005 68.9078 125.746 69.3719C126.777 70.019 127.812 70.6894 128.64 71.5681C131.007 74.0812 130.327 77.7242 126.784 78.8505C125.197 79.3549 123.583 79.3099 121.964 79.0549C121.505 78.9827 121.035 78.9695 120.604 78.7417C120.351 78.6076 120.25 78.4397 120.258 78.1603C120.272 77.6915 120.263 77.2209 120.262 76.7511C120.262 76.7284 120.282 76.7107 120.304 76.7112Z" fill="#3A271A"/>
<path d="M101.783 63.5767C102.208 63.5607 102.269 64.0416 101.844 64.0246C101.781 64.0221 101.719 64.0173 101.657 64.0137C100.71 63.9612 100.385 64.2247 100.304 65.1708C100.268 65.6059 100.269 66.0448 100.269 66.4818C100.27 69.4328 100.272 72.3847 100.281 75.3357C100.283 75.8309 100.335 76.3232 100.427 76.8136C100.525 77.335 100.863 77.5966 101.334 77.6894C102.617 77.9426 103.919 77.9651 105.202 77.7682C106.084 77.6332 106.645 77.0086 106.832 76.1244C106.882 75.8881 106.996 75.7765 107.177 75.7849C107.378 75.7943 107.295 76.0034 107.3 76.1291C107.332 76.9252 107.156 77.6969 106.997 78.4687C106.943 78.7303 106.778 78.8991 106.492 78.9544C106.228 79.006 105.965 79.0088 105.7 79.0135C102.878 79.0623 100.061 78.8241 97.239 78.915C96.7242 78.9319 96.2084 78.9403 95.6936 78.9403C95.5455 78.9403 95.3317 78.9469 95.3485 78.7303C95.3617 78.5653 95.5577 78.5718 95.6936 78.5728C96.877 78.5784 97.1837 78.5099 97.2512 76.9196C97.4153 73.0336 97.3768 69.1449 97.2831 65.258C97.2615 64.3813 96.9849 64.1074 96.1062 63.9949C95.8896 63.9677 95.6702 63.9696 95.4526 63.949C95.3204 63.9358 95.1254 63.963 95.131 63.768C95.1357 63.5851 95.3345 63.5964 95.462 63.5861C95.7105 63.5673 95.9618 63.5673 96.2112 63.5795C98.0689 63.6695 99.9265 63.6376 101.783 63.5767Z" fill="#3A271A"/>
<path d="M113.169 78.9441C113.169 78.9457 113.168 78.9464 113.166 78.9464C112.183 78.9464 111.201 78.9464 110.218 78.9464C110.062 78.9464 109.906 78.9492 109.75 78.9379C109.628 78.9295 109.473 78.9239 109.466 78.7607C109.459 78.5966 109.607 78.5835 109.733 78.5722C109.78 78.5685 109.827 78.5694 109.874 78.5704C111.226 78.6032 111.312 78.0227 111.34 76.8665C111.358 76.1257 111.426 75.3877 111.432 74.6488C111.455 72.056 111.452 69.4632 111.433 66.8713C111.429 66.2262 111.345 65.5829 111.343 64.934C111.341 64.4107 110.708 63.9925 110.089 64.0066C109.826 64.0122 109.391 64.1444 109.38 63.8012C109.37 63.5068 109.812 63.5733 110.073 63.5808C111.93 63.639 113.788 63.6596 115.646 63.5771C115.692 63.5752 115.739 63.5743 115.786 63.5771C115.977 63.5883 116.272 63.5405 116.278 63.7693C116.284 64.0394 115.986 63.8837 115.825 63.9231C115.518 63.9972 115.218 64.0938 114.907 64.1575C114.586 64.2241 114.465 64.5167 114.433 64.8233C114.398 65.1497 114.364 65.4769 114.364 65.8042C114.362 69.3028 114.366 72.8005 114.372 76.2992C114.373 76.5796 114.403 76.8599 114.417 77.1413C114.472 78.2534 114.715 78.4953 115.84 78.5497C116.105 78.5629 116.371 78.5544 116.635 78.5788C116.746 78.5891 116.917 78.6079 116.916 78.7541C116.915 78.8967 116.764 78.9342 116.635 78.9351C116.229 78.9398 115.823 78.9398 115.417 78.9398C114.669 78.9407 113.921 78.9398 113.172 78.9398C113.17 78.9398 113.169 78.9422 113.169 78.9441Z" fill="#3A271A"/>
<path d="M122.437 56.2499C121.33 56.7666 120.333 55.9717 120.391 54.7516C120.434 53.8515 120.433 52.9583 120.451 52.0658C120.468 51.2528 120.733 50.5476 121.394 49.9625C121.806 49.5977 122.279 49.3033 122.656 48.9076C123.532 47.9858 124.541 47.1925 125.308 46.1638C125.401 46.0392 125.506 45.923 125.621 45.8021C125.774 45.6421 126.051 45.7541 126.051 45.9753C126.051 48.0824 126.042 50.1904 126.054 52.2974C126.059 53.1123 125.799 53.7753 125.177 54.3267C124.334 55.074 123.467 55.7689 122.437 56.2499Z" fill="#BA8E36"/>
<path d="M94.9095 56.3294C94.9702 56.7552 94.5664 57.1372 94.1753 56.9582C93.476 56.6383 92.8209 56.2908 92.1845 55.9093C91.499 55.4986 90.8042 55.0841 90.19 54.5786C89.6442 54.1295 89.2053 53.5293 89.1988 52.7754C89.1798 50.6465 89.1877 48.5177 89.1899 46.362C89.1903 45.9482 89.5284 45.7929 89.8017 46.1035C90.8923 47.3375 91.9951 48.5603 93.3341 49.5374C94.3881 50.3064 94.8523 51.3201 94.8054 52.6338C94.7614 53.8641 94.7351 55.101 94.9095 56.3294Z" fill="#BA8E36"/>
<path d="M121.734 89.3275C121.734 89.3267 121.732 89.3273 121.733 89.3281C121.98 90.2322 122.36 90.5506 123.112 90.5534C123.557 90.5553 123.721 90.3715 123.725 89.9383C123.737 88.5645 123.77 87.1908 123.802 85.816C123.805 85.6398 123.71 85.4035 123.926 85.3087C124.112 85.2281 124.231 85.4278 124.355 85.5347C125.7 86.6994 127.041 87.8678 128.383 89.0362C128.501 89.139 128.597 89.0792 128.597 88.9226C128.6 87.9209 128.611 86.9272 128.59 85.9342C128.583 85.6323 128.533 85.4241 128.835 85.4241C129.216 85.4241 129.597 85.4241 129.98 85.4241C129.988 85.4241 129.995 85.4256 129.997 85.434C129.999 85.4426 129.993 85.4562 129.985 85.4576C129.264 85.5757 129.346 86.1228 129.341 86.6487C129.327 87.8978 129.282 89.1468 129.263 90.3959C129.257 90.7597 129.15 90.8385 128.814 90.6706C128.405 90.4672 128.051 90.1774 127.734 89.8783C126.89 89.0803 125.911 88.4332 125.133 87.5602C124.908 87.308 124.375 87.5158 124.393 87.8533C124.4 87.976 124.407 88.0964 124.408 88.2166C124.414 88.6845 124.448 89.1525 124.461 89.6204C124.48 90.2903 124.509 90.4182 124.993 90.5363C125.144 90.5732 125.207 90.732 125.052 90.7194C123.788 90.6134 122.523 90.7813 121.26 90.6838C121.093 90.6706 120.999 90.7175 120.949 90.4203C120.872 89.9561 120.566 89.5266 120.34 89.0915C120.306 89.024 120.185 88.9659 120.102 88.9621C119.514 88.9396 118.922 88.8599 118.344 89.0371C118.127 89.1037 117.631 90.1521 117.694 90.3678C117.761 90.5953 117.815 90.702 117.578 90.7015C117.077 90.7003 116.618 90.6992 116.159 90.7044C115.246 90.7147 114.668 90.229 114.194 89.4957C113.876 89.0052 113.541 88.4426 112.777 88.5776C112.613 88.6067 112.516 88.633 112.524 88.8196C112.541 89.2913 112.52 89.7676 112.578 90.2346C112.616 90.5403 112.897 90.59 113.164 90.5328C113.253 90.514 113.318 90.499 113.348 90.5872C113.389 90.7053 113.285 90.7157 113.215 90.7119C112.417 90.665 111.617 90.6584 110.775 90.6547C111.742 90.5825 111.368 89.7892 111.392 89.4C111.459 88.2579 111.517 87.1017 111.356 85.952C111.315 85.6576 111.208 85.5788 110.959 85.5638C110.802 85.5541 110.847 85.4014 111.005 85.4037C112.141 85.4198 113.218 85.2999 114.291 85.4907C114.801 85.5816 115.191 85.8507 115.354 86.3656C115.522 86.8991 115.249 87.292 114.916 87.669C114.732 87.8781 114.313 88.0084 114.357 88.2372C114.408 88.5007 114.711 88.7371 114.946 88.9377C115.406 89.3316 115.74 89.852 116.244 90.2018C116.626 90.4672 116.757 90.4456 116.965 90.033C117.649 88.6677 118.327 87.2995 119.008 85.9333C119.136 85.6745 119.253 85.3012 119.545 85.3087C119.862 85.3172 119.899 85.742 120.027 85.9895C120.579 87.0492 121.095 88.1275 121.624 89.1994C121.65 89.2534 121.657 89.3194 121.733 89.3286C121.734 89.3287 121.734 89.328 121.734 89.3275ZM113.179 88.1388C113.915 88.1444 114.342 87.7206 114.338 86.9873C114.334 86.1958 113.79 85.7429 112.901 85.7607C112.621 85.7663 112.508 85.8489 112.519 86.1386C112.537 86.5906 112.524 87.0435 112.525 87.4955C112.526 88.1341 112.527 88.1341 113.179 88.1388ZM119.293 88.5187C119.688 88.5189 119.946 88.1018 119.783 87.7421C119.59 87.3191 118.996 87.3284 118.801 87.75C118.724 87.9163 118.648 88.0793 118.572 88.2419C118.495 88.407 118.451 88.5308 118.719 88.5242C118.909 88.5198 119.098 88.5187 119.293 88.5187Z" fill="#BA8E36"/>
<path d="M87.6292 85.4897C87.5926 85.4774 87.6437 85.4184 87.6824 85.4184C88.5182 85.4184 89.3471 85.4184 90.1752 85.4184C89.3856 85.4953 89.5338 86.0842 89.531 86.5755C89.5234 87.6633 89.5272 87.6633 90.6309 87.6633C91.2085 87.6633 91.7871 87.6502 92.3648 87.6699C92.6601 87.6793 92.8027 87.6052 92.7661 87.2826C92.7398 87.051 92.752 86.8147 92.7492 86.5802C92.7457 86.2817 93.2526 85.4362 93.5512 85.4362C93.8625 85.4362 94.1739 85.4362 94.4854 85.4362C94.5193 85.4362 94.5581 85.475 94.5403 85.5038C94.5386 85.5064 94.5377 85.5047 94.5346 85.5048C93.9789 85.5215 93.8736 85.8521 93.8848 86.343C93.9111 87.4673 93.8886 88.5917 93.9007 89.716C93.9036 90.0132 93.8276 90.3705 94.2336 90.5027C94.7625 90.6753 95.4077 90.5262 95.6187 90.1351C96.0331 89.3662 96.4129 88.5785 96.8049 87.7974C97.1753 87.0585 97.5419 86.3167 97.9133 85.5778C97.9798 85.4447 98.0108 85.2581 98.2133 85.2674C98.3859 85.2759 98.4196 85.4409 98.4796 85.5628C99.137 86.8887 99.7971 88.2128 100.442 89.5444C100.556 89.7787 100.192 90.6817 99.9316 90.6724C99.842 90.6692 99.7525 90.6668 99.6631 90.6659C99.6284 90.6659 99.5599 90.6059 99.5646 90.5928C99.7493 90.0423 99.1989 89.7657 99.0929 89.3212C99.016 88.9996 98.7703 88.8945 98.4487 88.932C98.2949 88.9499 98.1364 88.9367 97.9808 88.9349C96.607 88.9189 96.9568 88.9217 96.3895 90.1033C96.2799 90.3312 96.2103 90.6678 95.9573 90.6678C94.6723 90.6678 93.387 90.6678 92.1022 90.6678C92.8252 90.5937 92.7539 90.0554 92.7605 89.5688C92.7652 89.1937 92.7483 88.8186 92.7689 88.4444C92.7839 88.1697 92.6751 88.0975 92.4163 88.1012C91.5574 88.1134 90.6984 88.1115 89.8395 88.1012C89.6003 88.0984 89.5 88.1725 89.5103 88.421C89.5263 88.8111 89.5122 89.2021 89.5216 89.5922C89.5308 89.9981 89.5363 90.2139 89.6252 90.3416C89.7894 90.5774 89.8642 90.6666 89.5771 90.6765C89.3916 90.6829 89.1896 90.6855 88.9884 90.684C88.7424 90.6822 88.3731 89.9938 88.3747 89.7479C88.3813 88.5926 88.3625 87.4364 88.3888 86.2811C88.3991 85.8094 88.281 85.5225 87.7605 85.53C87.7165 85.5309 87.6714 85.5075 87.6292 85.4897ZM98.4525 87.7539C98.2617 87.3305 97.6584 87.3227 97.4632 87.7441C97.3801 87.9237 97.2989 88.0996 97.2184 88.2756C97.1706 88.3807 97.1453 88.5073 97.3169 88.511C97.5291 88.5147 97.7414 88.5157 97.9566 88.5157C98.3499 88.5155 98.6141 88.1124 98.4525 87.7539Z" fill="#BA8E36"/>
<path d="M82.3861 88.3029C81.7961 87.8567 80.9527 88.1794 80.9532 88.9191C80.9534 89.2742 80.9544 89.6274 80.957 89.9804C80.9581 90.1006 80.7044 90.6635 80.5842 90.6642C80.4703 90.6649 80.3565 90.6653 80.2428 90.6654C80.1011 90.6655 80.0737 90.443 80.1363 90.3159C80.1997 90.1872 80.2024 89.9921 80.2087 89.6382C80.2322 88.3263 80.2593 87.0154 80.2894 85.7035C80.2922 85.5703 80.2331 85.4006 80.3859 85.319C80.5669 85.2224 80.6738 85.3903 80.7835 85.4859C82.1395 86.6609 83.4917 87.8415 84.8458 89.0193C84.9724 89.1282 85.1702 89.0283 85.171 88.8612C85.1719 88.6993 85.172 88.549 85.1683 88.3985C85.1524 87.7899 85.1261 87.1813 85.1111 86.5728C85.1038 86.2651 85.5909 85.4325 85.8987 85.4325C86.0235 85.4325 86.1483 85.4325 86.2733 85.4325C86.3755 85.4325 86.4539 85.5408 86.3517 85.5422C85.9391 85.5506 85.8397 85.7973 85.8351 86.162C85.8154 87.5358 85.7816 88.9096 85.7469 90.2833C85.7432 90.4427 85.8276 90.6575 85.6184 90.7409C85.4225 90.8188 85.2518 90.6631 85.1168 90.5628C84.1706 89.8548 83.3276 89.0212 82.3861 88.3029Z" fill="#BA8E36"/>
<path d="M136.84 86.1459C136.771 86.4414 136.523 86.4702 136.313 86.251C135.806 85.7206 135.067 85.6895 134.329 85.6845C133.482 85.678 132.73 85.948 132.359 86.7732C131.966 87.6472 132.059 88.5315 132.627 89.3032C133.317 90.239 134.32 90.4613 135.421 90.3656C135.663 90.345 135.775 90.2034 135.771 89.9568C135.767 89.5826 135.759 89.2066 135.777 88.8334C135.795 88.4536 135.652 88.237 135.254 88.2201C135.14 88.2151 135.18 88.0907 135.295 88.0907C135.534 88.0907 135.774 88.0907 136.013 88.0907C136.176 88.0907 136.928 89.0815 136.923 89.2441C136.92 89.322 136.922 89.4007 136.922 89.4786C136.921 90.5513 136.922 90.5588 135.873 90.721C134.874 90.8748 133.867 90.8111 132.896 90.5963C131.451 90.2766 130.674 88.8409 130.976 87.3921C131.195 86.3381 131.925 85.858 132.82 85.5317C133.955 85.1191 135.118 85.3029 136.277 85.4182C136.757 85.466 136.954 85.6573 136.84 86.1459Z" fill="#BA8E36"/>
<path d="M107.7 89.9922C107.702 90.1421 107.496 90.6612 107.346 90.661C106.864 90.6605 106.38 90.6488 105.885 90.6617C106.613 90.5736 106.542 90.0532 106.544 89.5824C106.549 88.4572 106.541 87.3319 106.555 86.2076C106.559 85.9281 106.486 85.8128 106.188 85.8372C105.815 85.8672 105.438 85.8447 105.063 85.8644C104.817 85.8775 104.556 85.8878 104.461 86.1991C104.442 86.2648 104.374 86.3473 104.285 86.322C104.158 86.2863 104.212 86.1757 104.216 86.0894C104.22 85.9816 104.232 85.8747 104.23 85.7668C104.224 85.4321 104.38 85.2783 104.716 85.3177C106.27 85.4958 107.83 85.3852 109.386 85.3777C109.818 85.3758 109.997 85.448 109.913 85.8925C109.856 86.1936 109.658 86.1978 109.395 86.0406C108.964 85.7833 108.421 85.8634 107.912 85.84C107.727 85.8316 107.672 85.9338 107.673 86.1016C107.684 87.3985 107.693 88.6953 107.7 89.9922Z" fill="#BA8E36"/>
<path d="M121.736 89.3284C121.737 89.3291 121.737 89.3286 121.738 89.3281C121.741 89.3265 121.743 89.3249 121.746 89.3234C121.749 89.3215 121.747 89.3173 121.743 89.3185C121.741 89.3192 121.739 89.3199 121.737 89.3206C121.735 89.3212 121.735 89.3271 121.736 89.3284Z" fill="#BA8E36"/>
</svg>
