<svg width="218" height="120" viewBox="0 0 218 120" fill="none" xmlns="http://www.w3.org/2000/svg">
<rect x="0.5" y="0.5" width="217" height="119" rx="11.5" fill="white" stroke="#E2E2E2"/>
<path d="M136.059 52.9829C136.063 67.3625 124.474 79.1413 110.321 79.1429C95.9906 79.1429 84.4202 67.4003 84.4465 52.8828C84.4727 38.6147 96.0972 26.9967 110.346 27C124.459 27.0033 136.056 38.7197 136.059 52.9829ZM102.955 60.7544C102.103 60.9464 101.88 61.9883 102.681 62.3358C105.611 63.6065 108.622 64.6132 111.822 65.0554C113.022 65.2211 114.228 65.3425 115.38 64.8814C117.505 64.0314 118.485 62.0918 118.15 59.6057C117.845 57.3363 117.031 55.2244 116.237 53.101C115.068 49.9816 113.798 46.8933 113.331 43.5621C112.658 38.7689 114.719 34.8667 119.012 32.9255C119.422 32.7398 119.295 32.2092 118.852 32.294C115.85 32.8702 112.962 33.8122 110.331 35.5412C107.105 37.6596 105.19 40.6068 104.858 44.5073C104.601 47.548 105.287 50.4213 106.393 53.2208C106.556 53.6362 106.032 54.0198 105.678 53.7467C103.858 52.3399 101.878 51.244 99.7254 50.4197C99.4159 50.3013 99.0791 50.1885 98.7238 50.0825C96.1586 49.3175 95.9065 50.9856 98.2108 52.3478C100.503 53.7016 102.694 55.185 104.263 57.4036C105.441 59.0708 104.949 60.3064 102.955 60.7544ZM98.9357 68.8953C98.8593 68.848 98.7568 68.8849 98.7327 68.9714C98.7232 69.0054 98.7278 69.0421 98.7462 69.0723C99.0575 69.5852 99.5304 70.0786 99.5925 70.6198C99.697 71.5208 99.826 71.9204 100.658 72.2804C100.974 72.417 101.259 72.6688 101.507 73.0911C101.734 73.4767 101.885 72.8597 101.872 72.6989C101.788 71.6503 102.389 71.1942 103.273 70.9168C103.654 70.7968 103.611 70.4117 103.225 70.3122C103.1 70.2799 102.973 70.2585 102.85 70.2408C102.182 70.144 102.023 69.778 102.062 69.1643C102.102 68.557 101.501 68.5241 101.032 68.9128C100.482 69.3697 99.8083 69.4359 98.9357 68.8953ZM92.3178 64.4679C92.2974 64.4563 92.2746 64.449 92.2512 64.4474C92.1372 64.4394 92.0581 64.5586 92.1022 64.664C92.3739 65.3128 92.3544 65.8477 92.1453 66.3127C91.8548 66.9586 92.095 67.6069 92.7546 67.8647C92.8838 67.915 92.9732 67.9964 93.0392 68.0991C93.4153 68.685 93.8748 68.5824 94.4723 68.2249C94.823 68.015 95.2685 67.9529 95.7848 67.9939C95.977 68.0092 96.1767 67.75 96.0185 67.6399C95.1127 67.0081 94.8321 66.2188 95.3588 65.1981C95.4113 65.0964 95.4113 64.8945 95.344 64.8191C95.2062 64.6632 95.0322 64.8076 94.919 64.8929C94.11 65.5017 93.3847 65.3474 92.689 64.6976C92.5872 64.5989 92.4462 64.541 92.3178 64.4679ZM118.905 68.4095C118.749 68.1763 118.432 68.3803 118.425 68.6605C118.414 69.1222 118.589 69.621 118.283 69.9963C118.044 70.2885 117.643 70.3639 117.268 70.5304C116.95 70.6713 117.034 71.1268 117.38 71.1597C118.291 71.245 118.628 71.7619 118.603 72.6349C118.589 73.1407 119.097 73.0128 119.43 72.6317C119.822 72.1827 120.372 72.1282 121.043 72.3361C121.307 72.4179 121.627 72.0925 121.437 71.8916C120.785 71.2073 120.744 70.5427 121.445 69.8716C121.484 69.8338 121.519 69.7895 121.542 69.7403C121.606 69.5959 121.747 69.417 121.706 69.3103C121.619 69.0823 121.36 69.1709 121.207 69.2267C120.203 69.5975 119.473 69.2463 118.905 68.4095ZM108.668 74.103C108.596 74.254 108.77 74.5055 108.89 74.3891C109.752 73.544 110.623 73.3963 111.525 74.33C111.616 74.4236 111.783 74.5319 111.868 74.3907C111.939 74.2726 111.929 74.0708 111.888 73.9247C111.639 73.0583 111.722 72.3231 112.615 71.8587C112.75 71.7882 112.947 71.6947 112.853 71.501C112.809 71.4091 112.622 71.3254 112.508 71.3353C111.271 71.4485 110.863 70.6904 110.702 69.6533C110.661 69.3983 110.334 69.6283 110.262 69.8763C110.21 70.058 110.145 70.2252 110.065 70.3758C109.811 70.8566 109.005 72.8404 108.911 73.3762C108.87 73.6092 108.789 73.8512 108.668 74.103ZM129.271 67.7859C129.47 67.7826 129.545 67.525 129.391 67.3997C128.93 67.0261 128.515 66.731 128.294 66.3304C128.202 66.1627 128.195 65.9904 128.229 65.8082C128.34 65.2148 127.865 65.0063 127.283 65.1659C127.233 65.1795 127.183 65.1908 127.133 65.1997C126.51 65.3095 125.751 65.8672 125.721 66.4994C125.681 67.4056 125.775 67.7518 126.481 68.3212C126.722 68.5154 126.905 68.8123 127.008 69.2529C127.026 69.3284 127.165 69.4351 127.239 69.4269C127.443 69.4055 127.431 69.1922 127.485 69.0511C127.953 67.8138 127.951 67.8138 129.271 67.7859Z" fill="#E11E23"/>
<path d="M81.6291 86.6731C81.8678 87.5242 83.1718 87.5433 83.5 86.7226C84.1781 85.0268 84.8549 83.3486 85.0078 81.5107C85.0259 81.2859 85.1063 81.1316 85.3442 81.1447C85.935 81.1759 86.6488 80.8986 87.0722 81.2809C87.3183 81.5025 86.7833 82.0752 86.6291 82.5018C85.5428 85.5015 84.4926 88.5143 83.595 91.5763C83.4818 91.9635 83.3324 92.1161 82.932 92.1096C81.9212 92.0899 80.9104 92.0899 79.9012 92.1096C79.5221 92.1178 79.4023 91.9471 79.2957 91.6107C78.234 88.2862 77.1592 84.9665 76.063 81.6518C75.9219 81.2251 76.0072 81.125 76.4273 81.1316C77.5202 81.1464 78.6114 81.1349 79.7043 81.1349C79.957 81.1349 80.2343 81.1267 80.2425 81.4778C80.2803 83.3239 81.1434 84.9485 81.6291 86.6731Z" fill="#E1232A"/>
<path d="M108.787 88.5379C108.793 86.5504 110.349 84.8244 112.336 84.8268C113.084 84.8277 113.832 84.8339 114.579 84.8518C115.674 84.8781 116.17 85.4869 116.181 86.606C116.186 87.0704 116.189 87.5332 116.171 87.9976C116.156 88.3947 116.061 88.8115 115.639 88.9263C115.013 89.097 115.226 89.3956 115.42 89.7534C115.994 90.8127 115.206 92.0874 114.001 92.1015C113.921 92.1025 113.841 92.1036 113.761 92.1049C113.404 92.1098 113.408 91.8522 113.324 91.6257C113.07 90.9365 112.799 90.2522 112.53 89.5679C112.399 89.2332 112.19 89.0002 111.79 89.0789C111.381 89.1593 111.517 89.4974 111.514 89.7419C111.509 90.3671 111.432 90.9989 111.59 91.6159C111.682 91.9785 111.575 92.1163 111.201 92.1098C109.826 92.0884 108.742 90.9511 108.773 89.5768C108.781 89.2302 108.786 88.884 108.787 88.5379ZM111.597 87.62C112.071 88.1051 113.222 88.0143 113.396 87.3586C113.427 87.2422 113.443 87.0965 113.442 86.9162C113.439 85.9414 112.914 86.0104 112.235 85.9595C111.268 85.8873 111.57 86.5338 111.496 87.0228C111.45 87.3334 111.495 87.5151 111.597 87.62Z" fill="#990833"/>
<path d="M120.798 92.1029C120.142 92.1029 119.487 92.1127 118.831 92.1013C117.654 92.0799 116.987 91.4711 116.947 90.2946C116.906 89.0671 116.911 87.8348 116.957 86.6073C116.998 85.4882 117.508 84.9303 118.627 84.8761C120.099 84.8056 121.578 84.8105 123.052 84.8515C123.947 84.8778 124.519 85.4406 124.589 86.4679C124.684 87.8545 124.678 89.2526 124.63 90.6424C124.602 91.4547 123.875 92.0438 123.012 92.0963C122.631 92.1193 122.247 92.1029 121.865 92.1029C121.509 92.1029 121.153 92.1029 120.798 92.1029ZM119.697 88.4091C119.697 88.9818 119.733 89.5561 119.689 90.1239C119.619 91.0182 120.314 90.905 120.789 90.9214C121.255 90.9378 121.908 90.9985 121.916 90.2109C121.927 89.0392 121.946 87.8676 121.911 86.6976C121.885 85.8148 121.182 85.9969 120.634 85.9789C120.088 85.9608 119.653 86.0658 119.691 86.7747C119.722 87.3179 119.697 87.8643 119.697 88.4091Z" fill="#990833"/>
<path d="M104.243 84.836C104.243 84.8307 104.248 84.827 104.253 84.827C105.041 84.8269 105.83 84.8172 106.618 84.8303C107.148 84.8385 107.519 85.4211 107.341 85.9101C107.263 86.1267 107.118 86.1004 106.952 86.0725C105.894 85.892 104.827 86.043 103.767 85.9823C103.231 85.9527 103.013 86.2186 103.009 86.7059C103.003 87.8792 103.001 89.0525 103.014 90.2258C103.022 90.9806 103.564 90.9642 104.11 90.9675C104.647 90.9708 104.946 90.7804 104.916 90.2061C104.906 90.0157 104.89 89.8205 104.919 89.6334C105.023 88.9754 104.686 88.8047 104.12 88.9032C103.726 88.9721 103.428 89.0098 103.457 88.4355C103.479 88.0072 103.482 87.7053 104.058 87.7266C105.121 87.766 106.186 87.7381 107.251 87.7381C107.566 87.7381 107.709 87.7414 107.625 88.1943C107.41 89.3479 107.45 90.5293 107.609 91.6911C107.656 92.0374 107.633 92.1473 107.305 92.1112C106.67 92.0407 105.996 92.3278 105.402 91.9045C105.211 91.7683 105.113 91.9783 104.969 91.998C103.695 92.1801 102.417 92.1785 101.148 91.9947C100.673 91.9258 100.384 91.5549 100.339 91.0774C100.185 89.3905 100.187 87.6971 100.33 86.0118C100.4 85.1864 101.052 84.891 101.788 84.8566C102.602 84.8174 103.418 84.8481 104.233 84.8484C104.239 84.8484 104.244 84.8421 104.243 84.836Z" fill="#990833"/>
<path d="M93.016 86.7507C92.9416 86.7637 92.8871 86.8281 92.8856 86.9036C92.8558 88.3981 92.6793 89.8967 93.0158 91.383C93.1356 91.9163 93.1372 92.1542 92.4727 92.1214C91.8458 92.0902 91.5833 92.1723 91.6653 91.255C91.8425 89.2563 91.9049 87.2215 91.6079 85.2146C91.5603 84.8881 91.644 84.8224 91.9131 84.8224C92.9239 84.8241 93.9364 84.8421 94.9472 84.8224C95.3575 84.8142 95.4346 85.108 95.5544 85.3738C96.1008 86.5651 96.6341 87.763 97.1855 88.9527C97.2403 89.0703 97.2858 89.1938 97.3359 89.3153C97.4891 89.6871 97.8687 89.6944 97.8583 89.2924C97.8205 87.9041 97.9567 86.5143 97.8008 85.1293C97.7762 84.9078 97.873 84.829 98.065 84.8274C98.3932 84.8224 98.7214 84.8224 99.0496 84.8257C99.2367 84.8274 99.4172 84.8979 99.2925 85.1096C98.7526 86.0335 99.066 87.0361 99.0201 88.001C98.9643 89.1463 98.9873 90.2967 99.0151 91.4437C99.0266 91.9212 98.9085 92.105 98.385 92.1181C95.6578 92.1854 95.6578 92.2002 94.496 89.6911C94.0565 88.7412 93.6217 87.7897 93.1841 86.8396C93.1544 86.7753 93.0857 86.7385 93.016 86.7507Z" fill="#E1232A"/>
<path d="M137.325 90.2144C137.368 91.1003 136.608 92.2072 135.721 92.1954C135.425 92.1915 135.155 92.1459 134.934 92.0178C134.261 91.6305 134.825 90.5245 134.773 89.7369C134.686 88.4618 134.776 87.1753 134.74 85.8954C134.71 84.8288 134.678 84.8304 135.772 84.8304C137.244 84.8304 138.718 84.8173 140.19 84.8337C141.565 84.8501 141.995 85.2948 141.996 86.6371C141.996 87.0998 142.003 87.5642 141.998 88.027C141.986 88.9541 141.557 89.448 140.626 89.4973C139.756 89.5432 138.88 89.5465 138.01 89.5071C137.456 89.4825 137.297 89.6942 137.325 90.2144ZM138.23 85.9561C137.024 85.8609 137.026 88.3272 138.233 88.2318C138.25 88.2304 138.267 88.2289 138.284 88.2272C139.313 88.1271 139.382 88.1386 139.387 87.0047C139.39 86.0037 139.356 86.0464 138.23 85.9561Z" fill="#990833"/>
<path d="M132.297 84.8274C132.829 84.8542 133.22 85.3444 133.176 85.8761C133.104 86.7389 133.201 87.5756 133.165 88.4047C133.135 89.0857 133.165 89.7699 133.119 90.4509C133.055 91.429 132.321 92.0968 131.345 92.1017C130.062 92.1083 128.778 92.0919 127.495 92.1067C126.658 92.1165 126.177 91.6981 125.948 90.9252C125.7 90.0981 125.769 89.2498 125.756 88.4047C125.739 87.3709 125.871 86.3272 125.601 85.3082C125.508 84.9554 125.585 84.8093 125.977 84.8225C126.714 84.8454 127.451 84.8438 128.188 84.8274C128.563 84.8192 128.644 84.9603 128.599 85.3197C128.407 86.8966 128.567 88.4834 128.503 90.0637C128.481 90.6183 128.7 90.8005 129.235 90.8956C131.617 91.3157 131.855 91.1451 131.849 88.8034C131.845 87.658 131.872 86.5077 131.785 85.3673C131.747 84.8717 131.895 84.8028 132.297 84.8274Z" fill="#990833"/>
<path d="M87.573 88.372C87.5682 88.3715 87.5644 88.3678 87.5644 88.363C87.5646 87.3551 87.5954 86.3471 87.548 85.3425C87.5283 84.9355 87.612 84.778 88.014 84.8223C88.0403 84.8256 88.0681 84.8223 88.096 84.8223C88.8607 84.8272 89.8108 84.5598 90.3327 84.9191C90.7888 85.2325 90.2851 86.2335 90.3359 86.9441C90.4508 88.5456 90.1965 90.1636 90.4918 91.7602C90.5443 92.0458 90.4492 92.0999 90.2194 92.1065C90.1653 92.1081 90.1095 92.1048 90.0553 92.1048C89.2644 92.0966 88.2552 92.3789 87.74 91.9982C87.1968 91.5961 87.653 90.5361 87.5857 89.7648C87.5465 89.3058 87.5789 88.8419 87.5791 88.3796C87.5791 88.3758 87.5767 88.3724 87.573 88.372Z" fill="#E1232A"/>
<path d="M102.686 62.3376C101.885 61.9905 102.108 60.9453 102.96 60.7543C104.954 60.308 105.446 59.0707 104.268 57.4035C102.699 55.1849 100.508 53.7015 98.2158 52.3477C95.9085 50.9847 96.1606 49.3166 98.7286 50.0823C99.084 50.1883 99.4209 50.3011 99.7304 50.4196C101.883 51.2439 103.863 52.3398 105.683 53.7466C106.035 54.0185 106.561 53.6342 106.398 53.2207C105.292 50.4212 104.606 47.5463 104.863 44.5072C105.195 40.6067 107.11 37.6595 110.336 35.541C112.968 33.8123 115.855 32.8703 118.857 32.2941C119.297 32.2097 119.424 32.7405 119.016 32.9254C114.724 34.8683 112.663 38.7704 113.336 43.562C113.803 46.8948 115.073 49.9831 116.242 53.1009C117.036 55.2226 117.85 57.3362 118.155 59.6056C118.49 62.0917 117.51 64.0313 115.385 64.8813C114.233 65.3424 113.025 65.221 111.827 65.0552C108.625 64.6133 105.614 63.6074 102.686 62.3376Z" fill="#FBED03"/>
<path d="M98.7337 68.972C98.757 68.8857 98.8593 68.8478 98.9353 68.8949C99.809 69.4364 100.483 69.3697 101.034 68.9114C101.502 68.5221 102.104 68.5553 102.064 69.1627C102.025 69.7748 102.184 70.1424 102.852 70.2392C102.975 70.257 103.102 70.2784 103.227 70.3107C103.613 70.4102 103.656 70.7953 103.275 70.9153C102.391 71.1926 101.788 71.6504 101.874 72.6973C101.887 72.8582 101.736 73.4751 101.509 73.0895C101.262 72.6669 100.977 72.4151 100.661 72.2786C99.8271 71.9185 99.6992 71.5202 99.5945 70.6182C99.5308 70.0767 99.0574 69.5831 98.7475 69.0698C98.7296 69.0401 98.7246 69.0055 98.7337 68.972Z" fill="#F9E508"/>
<path d="M92.2528 64.4472C92.2756 64.4488 92.2976 64.4557 92.3176 64.4669C92.4459 64.5391 92.5861 64.5985 92.6911 64.6973C93.3868 65.3472 94.1121 65.5014 94.9211 64.8926C95.0343 64.8073 95.2083 64.6612 95.3461 64.8188C95.4118 64.8943 95.4134 65.0961 95.3609 65.1978C94.8341 66.2185 95.1147 67.0078 96.0206 67.6396C96.1776 67.7513 95.9792 68.0089 95.787 67.9936C95.2707 67.9526 94.8252 68.0147 94.4744 68.2246C93.8769 68.5821 93.4174 68.6847 93.0413 68.0988C92.9753 67.9961 92.8859 67.9147 92.7567 67.8644C92.0971 67.6066 91.8569 66.9583 92.1474 66.3125C92.3566 65.8472 92.3761 65.3121 92.104 64.663C92.06 64.558 92.1392 64.4391 92.2528 64.4472Z" fill="#F9E508"/>
<path d="M118.425 68.6593C118.432 68.3798 118.748 68.1761 118.905 68.4077C119.472 69.2462 120.203 69.5957 121.207 69.2249C121.359 69.1691 121.619 69.0805 121.706 69.3086C121.747 69.4169 121.606 69.5957 121.542 69.7385C121.52 69.7877 121.484 69.832 121.445 69.8698C120.744 70.5409 120.785 71.2055 121.437 71.8898C121.628 72.0897 121.307 72.4161 121.043 72.3345C120.372 72.127 119.822 72.1818 119.43 72.6302C119.097 73.0111 118.588 73.139 118.603 72.6331C118.627 71.7602 118.291 71.2433 117.38 71.1579C117.034 71.125 116.95 70.6695 117.267 70.5283C117.643 70.3614 118.044 70.2857 118.283 69.9945C118.589 69.6201 118.414 69.1211 118.425 68.6593Z" fill="#F9E508"/>
<path d="M108.892 74.3911C108.767 74.5033 108.596 74.2537 108.669 74.1028C108.79 73.8509 108.871 73.6089 108.912 73.3759C109.006 72.8413 109.812 70.86 110.066 70.3804C110.146 70.2294 110.212 70.0615 110.264 69.8792C110.336 69.6307 110.667 69.3993 110.703 69.6553C110.864 70.6924 111.271 71.4505 112.51 71.3372C112.623 71.3274 112.81 71.4111 112.855 71.503C112.948 71.695 112.751 71.7902 112.617 71.8607C111.724 72.3251 111.64 73.0586 111.89 73.9267C111.932 74.0727 111.942 74.2746 111.87 74.3927C111.785 74.5338 111.617 74.4255 111.527 74.332C110.625 73.3983 109.753 73.5476 108.892 74.3911Z" fill="#F9E508"/>
<path d="M129.389 67.3986C129.545 67.5246 129.469 67.784 129.269 67.7872C127.951 67.8135 127.953 67.8135 127.483 69.0524C127.429 69.1952 127.441 69.4069 127.237 69.4282C127.165 69.4364 127.024 69.3297 127.006 69.2543C126.903 68.8127 126.72 68.5154 126.479 68.3209C125.773 67.7519 125.676 67.4061 125.719 66.5007C125.749 65.8689 126.508 65.3108 127.131 65.201C127.183 65.192 127.234 65.1804 127.285 65.1663C127.866 65.0057 128.34 65.2134 128.228 65.8063C128.194 65.9897 128.2 66.1632 128.292 66.3317C128.514 66.7307 128.928 67.0254 129.389 67.3986Z" fill="#F9E508"/>
</svg>
