<svg width="218" height="120" viewBox="0 0 218 120" fill="none" xmlns="http://www.w3.org/2000/svg">
<rect x="0.5" y="0.5" width="217" height="119" rx="11.5" fill="white" stroke="#E2E2E2"/>
<path d="M142.393 30C142.425 30 142.455 30.0127 142.478 30.0348C145.193 32.6499 144.726 35.7911 143.855 38.9525C142.423 44.1439 139.099 47.8373 134.61 50.6624C131.446 52.653 127.949 53.7938 124.476 55.0295C121.903 55.9435 119.318 56.8305 116.874 58.0678C115.711 58.6568 114.604 59.3339 113.722 60.3072C112.593 61.5513 112.134 63.0155 112.493 64.6777C112.671 65.5037 113.206 66.0673 114.005 66.3568C114.186 66.4228 114.416 66.438 114.574 66.3009C114.792 66.1097 114.548 65.9472 114.482 65.788C114.208 65.1279 114.33 64.5626 114.89 64.1309C115.364 63.7653 115.892 63.7585 116.385 64.1021C116.96 64.505 117.133 65.0585 116.906 65.7339C116.546 66.8053 115.703 67.264 114.677 67.4215C113.524 67.5992 112.563 67.1777 111.862 66.2535C110.504 64.4593 110.743 61.8526 112.421 59.7774C113.885 57.9662 115.872 56.8982 117.949 56.0044C120.792 54.7806 123.699 53.7024 126.534 52.46C130.209 50.8486 133.699 48.9155 136.712 46.2056C140.207 43.0623 141.934 39.1065 142.316 34.4703C142.437 33.0114 142.284 31.57 142.271 30.123C142.271 30.0555 142.325 30.0002 142.393 30Z" fill="#B49050"/>
<path d="M73.6868 33.3863C74.001 31.6822 75.6142 32.3949 75.7137 34.1248C76.0505 40.0576 78.7368 44.621 83.5406 48.0334C87.41 50.7823 91.6874 52.7052 96.0968 54.3826C98.8626 55.4338 101.647 56.4714 104.037 58.2707C105.841 59.6299 107.087 61.3683 107.079 63.7465C107.075 64.8856 106.661 65.9063 105.825 66.7019C104.496 67.9663 102.15 67.6904 101.339 66.1924C100.973 65.517 100.889 64.8331 101.515 64.2627C102.008 63.8142 102.592 63.7651 103.143 64.1595C103.798 64.6283 103.888 65.2614 103.514 65.9452C103.255 66.4175 103.577 66.4039 103.866 66.409C104.548 66.4209 105.368 65.6609 105.564 64.7468C106.007 62.6902 105.261 61.0433 103.7 59.7298C101.789 58.1217 99.4872 57.25 97.1919 56.3901C94.1079 55.2357 90.9544 54.2506 87.9178 52.9845C83.5693 51.1733 79.6542 48.6631 76.9172 44.7158C74.7709 41.6267 73.4743 38.1973 73.586 34.355C73.5956 34.021 73.6295 33.6974 73.6868 33.3863Z" fill="#B49050"/>
<path d="M113.678 63.1558C113.681 63.1585 113.686 63.1564 113.686 63.1522C113.759 62.0187 114.492 61.2629 115.271 60.5913C117.438 58.7243 120.073 57.8035 122.777 57.0807C126.365 56.1226 130.001 55.3068 133.371 53.6937C137.207 51.8571 140.529 49.3418 143.16 45.9649C143.855 45.0712 144.424 44.103 144.876 43.0654C145.079 42.5965 145.323 42.1514 145.707 41.8061C145.89 41.6402 146.098 41.4235 146.372 41.5454C146.628 41.6605 146.528 41.9432 146.535 42.1514C146.606 44.4635 145.768 46.4609 144.299 48.1857C141.328 51.6709 137.474 53.8325 133.237 55.3745C129.657 56.6778 125.893 57.2855 122.221 58.252C119.694 58.9172 117.27 59.7873 115.28 61.5595C114.719 62.0593 114.209 62.6164 113.677 63.1484C113.675 63.1505 113.675 63.1539 113.678 63.1558Z" fill="#B49050"/>
<path d="M71.6428 43.8774C71.5016 43.0876 70.9737 41.8224 71.7374 41.5763C72.1876 41.4308 72.4754 41.9859 72.7614 42.3245C72.8681 42.4514 72.951 42.6055 73.0238 42.7578C75.7524 48.5163 80.5477 51.9541 86.2029 54.3746C89.446 55.7626 92.9177 56.4481 96.2996 57.4095C98.2005 57.9495 100.01 58.723 101.698 59.7725C102.649 60.3666 103.348 61.1842 103.951 62.1067C104.05 62.259 104.13 62.4266 104 62.5637C103.832 62.7414 103.692 62.5688 103.59 62.4503C101.318 59.7945 98.1633 58.8974 94.9574 58.0714C91.2284 57.1099 87.4047 56.4955 83.8128 55.0364C79.9028 53.4487 76.3363 51.3447 73.6128 48.0389C72.5997 46.8093 71.9205 45.4305 71.6428 43.8774Z" fill="#B49050"/>
<path d="M111.701 58.5418C110.501 59.5435 107.506 59.4332 106.271 58.4759C106.177 58.4036 106.082 58.333 105.983 58.2642C105.728 58.0847 105.799 57.9222 105.919 57.7005C107.539 54.6842 107.947 51.3479 108.422 48.0371C108.535 47.2493 108.623 46.4577 108.707 45.6649C108.765 45.1149 109.281 45.1078 109.328 45.6589C109.45 47.0739 109.743 48.4738 109.953 49.8821C110.239 51.8033 110.608 53.7058 111.148 55.5745C111.336 56.2245 111.542 56.8796 111.909 57.4449C112.223 57.9273 112.134 58.1778 111.701 58.5418Z" fill="#B49050"/>
<path d="M100.409 61.0364C100.62 61.1822 100.577 61.5285 100.347 61.4161C97.3979 59.9723 94.2073 59.698 91.003 59.4154C86.9999 59.0633 82.968 58.8212 79.1391 57.4163C77.4651 56.8019 75.8368 56.1028 74.6468 54.6878C74.2186 54.1783 73.9528 53.6028 73.924 52.9257C73.8987 52.3536 74.1373 52.2199 74.6451 52.4484C75.1106 52.6583 75.5473 52.9088 75.9417 53.2321C79.0934 55.8083 82.7801 57.0287 86.7561 57.5907C90.3446 58.0968 93.9686 58.4726 97.4149 59.6862C98.3255 60.0061 99.2599 60.304 100.089 60.8254C100.197 60.8924 100.302 60.9629 100.409 61.0364Z" fill="#B49050"/>
<path d="M117.969 61.2532C117.587 61.4124 117.496 61.0795 117.851 60.8669C118.653 60.3878 119.5 60.0708 120.351 59.7586C124.743 58.1489 129.425 58.0067 133.95 57.069C136.837 56.4698 139.436 55.2494 141.777 53.4636C142.245 53.1064 142.748 52.795 143.249 52.4852C143.461 52.3532 143.728 52.2195 143.965 52.3735C144.248 52.558 144.151 52.8881 144.114 53.1522C144.009 53.9071 143.605 54.5131 143.068 55.0361C141.587 56.4816 139.703 57.1468 137.792 57.7528C134.737 58.721 131.56 58.9461 128.399 59.2661C125.803 59.5284 123.188 59.6232 120.642 60.2867C119.718 60.5271 118.841 60.8758 117.969 61.2532Z" fill="#B49050"/>
<path d="M71.0349 73.7735C71.0349 73.7418 70.9966 73.7137 71.0281 73.7095C72.064 73.6096 73.0542 73.437 73.3995 74.9028C73.6427 75.9356 75.4866 75.8827 75.9402 74.9235C76.0969 74.5922 76.212 74.2456 76.2483 73.8602C76.2787 73.5487 76.4819 73.6943 76.597 73.6892C77.4856 73.6597 78.2067 74.4015 78.2067 75.2906C78.2067 76.4992 78.2067 77.6972 78.2067 78.9037C78.2067 79.2845 77.9131 79.5932 77.5323 79.5932C77.0984 79.5932 76.7572 79.1962 76.7862 78.7633C76.7905 78.6979 76.794 78.6325 76.7968 78.5672C76.8316 77.7349 75.707 77.4851 75.2874 78.2048C75.2758 78.2247 75.2641 78.2447 75.2525 78.2647C74.9245 78.8273 74.0941 78.7914 73.7793 78.2214C73.3852 77.508 72.3185 77.7484 72.3485 78.5629C72.3516 78.6473 72.3561 78.7317 72.3622 78.8162C72.3912 79.2221 72.0645 79.5949 71.6576 79.5949C71.3009 79.5949 71.0334 79.3055 71.0337 78.9488C71.0349 77.2228 71.0349 75.5123 71.0349 73.7735Z" fill="#0A0A0A"/>
<path d="M94.5257 73.7912C94.5257 73.7439 94.5547 73.6862 94.6019 73.6893C95.3247 73.7401 95.973 73.5048 96.5773 74.4324C96.9006 74.9289 97.3198 75.363 97.7758 75.7748C98.4201 76.3567 99.6262 75.8149 99.592 74.9474C99.586 74.7972 99.5762 74.6464 99.5609 74.4951C99.5208 74.0988 99.8064 73.7232 100.205 73.7232C100.561 73.7232 100.849 74.0252 100.832 74.3805C100.767 75.7182 100.791 77.063 100.805 78.4525C100.811 79.1001 100.287 79.6221 99.6393 79.6272C99.3972 79.6289 99.2178 79.6407 99.2821 79.27C99.3075 79.1228 99.0536 78.9061 98.8945 78.7538C98.4805 78.3595 98.0651 77.967 97.6445 77.5711C96.9763 76.9422 95.7925 77.4379 95.828 78.3548C95.834 78.5085 95.8431 78.6627 95.8564 78.8174C95.8916 79.2245 95.5734 79.5984 95.1648 79.5984C94.8067 79.5984 94.5272 79.3082 94.5269 78.9501C94.5258 77.2311 94.5257 75.5232 94.5257 73.7912Z" fill="#0A0A0A"/>
<path d="M90.0046 79.7403C88.7486 79.7403 87.6619 79.3612 86.9984 78.2254C86.4026 77.203 86.4043 76.1265 86.9967 75.0957C87.8244 73.6586 90.0215 73.1406 91.7294 73.9548C91.8801 74.0276 92.0341 74.1037 92.1678 74.2036C92.4251 74.3966 92.5047 74.1985 92.6028 74.0276C92.7433 73.7838 92.6722 73.6907 92.3912 73.6603C91.8124 73.5976 91.7616 73.1779 91.8445 72.7259C91.9122 72.3569 92.1915 72.2317 92.5368 72.2706C93.0209 72.3248 93.1783 72.6768 93.2173 73.0983C93.2359 73.2913 93.2799 73.5519 93.18 73.6755C92.6096 74.3813 92.9651 74.9856 93.2257 75.6965C94.001 77.8022 92.4217 79.7352 90.0046 79.7403ZM89.9775 74.6336C88.7351 74.6336 87.9175 75.4579 87.9294 76.6986C87.9412 77.8784 88.7673 78.6976 89.9589 78.7146C91.1861 78.7298 92.0476 77.8902 92.0527 76.6749C92.0578 75.441 91.2352 74.6319 89.9775 74.6336Z" fill="#0A0A0A"/>
<path d="M120.381 61.4278C120.264 61.4515 120.23 61.2837 120.342 61.2434C121.7 60.7534 123.138 60.5356 124.594 60.4596C126.62 60.3547 128.649 60.336 130.677 60.27C132.905 60.1972 135.117 60.0195 137.267 59.3628C137.831 59.1901 138.421 59.1072 139.02 59.1613C139.669 59.2206 139.709 59.5269 139.347 59.9806C138.871 60.5747 138.22 60.9048 137.516 61.1367C135.86 61.6834 134.139 61.8036 132.424 61.7376C130.005 61.6445 127.588 61.4549 125.174 61.2535C123.565 61.118 121.97 61.1028 120.381 61.4278Z" fill="#B49050"/>
<path d="M104.484 86.9453C104.053 87.2608 103.864 87.8489 104.168 88.2873C104.215 88.3564 104.264 88.4255 104.313 88.4945C104.692 89.0299 104.322 89.8511 103.666 89.8511C103.497 89.8511 103.446 89.775 103.416 89.6023C103.282 88.8541 102.715 88.3463 102.316 87.7522C101.945 87.2021 101.324 87.4221 100.829 87.4865C100.298 87.5542 100.55 88.0738 100.527 88.3988C100.476 89.0935 99.9857 90.1057 99.3458 89.8307C99.3253 89.8219 99.3053 89.8124 99.2858 89.802C98.8643 89.5769 99.2502 88.9997 99.2164 88.5748C99.103 87.0938 99.3399 85.6008 99.081 84.1214C99.0183 83.7643 99.3112 83.8709 99.4669 83.8692C100.677 83.8658 101.891 83.832 103.098 83.9014C104.382 83.9759 104.919 84.394 105.061 85.2487C105.195 86.0423 105.07 86.5153 104.484 86.9453ZM102.022 84.8284C102.014 84.8278 102.007 84.8338 102.007 84.8414C102.006 84.8486 102 84.8544 101.993 84.8544C101.662 84.8547 101.33 84.866 100.999 84.851C100.633 84.834 100.459 85.0101 100.525 85.352C100.596 85.7193 100.24 86.3219 100.855 86.4032C101.622 86.5064 102.417 86.5132 103.194 86.3693C103.568 86.2999 103.8 86.0612 103.814 85.6804C103.827 85.2589 103.58 84.9915 103.174 84.9254C102.794 84.8669 102.406 84.8596 102.022 84.8284Z" fill="#B49050"/>
<path d="M97.4473 61.1195C97.7715 61.1744 97.63 61.4168 97.3034 61.3782C94.8283 61.0857 92.3826 61.3077 89.937 61.4834C88.1139 61.6137 86.296 61.866 84.4629 61.7847C83.085 61.7238 81.7089 61.6121 80.4005 61.1212C79.7369 60.8724 79.1005 60.566 78.6756 59.96C78.3659 59.5182 78.3947 59.2322 79.0277 59.2372C79.5626 59.2423 80.1026 59.1966 80.6205 59.3591C83.5624 60.2833 86.6092 60.3104 89.6458 60.3696C92.2694 60.4221 94.866 60.6743 97.4473 61.1195Z" fill="#B49050"/>
<path d="M136.237 77.6806C135.539 77.0353 134.405 77.5327 134.405 78.4832C134.405 78.6178 134.405 78.7534 134.405 78.8899C134.405 79.2671 134.107 79.573 133.73 79.573C133.353 79.573 133.039 79.2672 133.039 78.89C133.039 77.2061 133.039 75.5206 133.039 73.7923C133.039 73.7554 133.031 73.691 133.068 73.691C133.845 73.6876 134.498 73.5623 135.119 74.473C135.433 74.9338 135.83 75.3382 136.254 75.7154C136.918 76.3049 138.086 75.765 138.059 74.8779C138.054 74.7264 138.047 74.5734 138.036 74.4194C138.011 74.0459 138.31 73.7147 138.684 73.7147C139.042 73.7147 139.313 74.0186 139.296 74.376C139.231 75.7323 139.261 77.0993 139.268 78.5116C139.271 79.1274 138.77 79.6347 138.154 79.6204C137.961 79.6153 137.714 79.7067 137.787 79.2954C137.816 79.1312 137.53 78.8841 137.349 78.7148C136.978 78.3671 136.605 78.0213 136.237 77.6806Z" fill="#0A0A0A"/>
<path d="M80.4365 73.7181C80.7668 73.7181 80.974 74.0059 80.9433 74.3347C80.831 75.5364 80.8096 76.7292 81.0351 77.8973C81.2027 78.7673 82.0744 78.7233 82.7751 78.7047C83.4014 78.6861 84.1377 78.6048 84.2156 77.8262C84.332 76.6607 84.3283 75.4852 84.2551 74.2869C84.2357 73.9691 84.486 73.6978 84.8044 73.6978C84.8527 73.6978 84.9011 73.6978 84.9495 73.6978C85.0691 73.6978 85.2855 73.6273 85.2261 73.5234C85.0061 73.1561 84.9367 72.7837 85.2447 72.4384C85.4614 72.1947 85.761 72.2031 86.0234 72.3402C86.4313 72.5535 86.4702 72.9547 86.4668 73.3626C86.4635 73.779 86.3297 74.1751 86.0217 74.4239C85.5122 74.8352 85.4817 75.3515 85.5003 75.9304C85.5223 76.577 85.4936 77.227 85.4749 77.8736C85.4479 78.7893 84.9418 79.331 84.087 79.5578C83.0578 79.8303 82.0202 79.8252 80.9945 79.5459C80.1397 79.3123 79.6505 78.7538 79.6403 77.838C79.6302 76.8241 79.6183 75.8085 79.6234 74.7946C79.6236 74.7543 79.6236 74.7141 79.6233 74.674C79.6195 74.2397 80.0022 73.7181 80.4365 73.7181Z" fill="#0A0A0A"/>
<path d="M145.613 74.7534C145.627 74.3003 146.046 73.7183 146.499 73.7183C146.806 73.7183 147 73.9667 147 74.2731C147 75.7099 147 77.1348 147 78.5743C147 79.1325 146.585 79.585 146.027 79.585C145.704 79.585 145.528 79.4403 145.607 79.1271C145.609 79.1196 145.611 79.112 145.612 79.1043C145.876 77.1645 145.779 77.0444 143.85 77.0444C142.181 77.0444 142.182 77.0444 142.211 78.7235C142.218 79.0896 141.893 79.5749 141.527 79.5749C141.496 79.5749 141.466 79.5749 141.436 79.5749C141.094 79.5749 140.805 79.2151 140.833 78.8745C140.909 77.9512 140.919 76.3795 140.866 75.1921C140.834 74.4571 141.582 73.3339 142.194 73.742C142.519 73.9586 142.228 74.6222 142.186 75.0707C142.105 75.9187 142.413 76.1422 143.206 76.0508C143.818 75.9814 144.446 76.0051 145.063 76.0474C145.534 76.0779 145.657 75.8815 145.61 75.4651C145.583 75.2317 145.606 74.9932 145.613 74.7534Z" fill="#0A0A0A"/>
<path d="M107.349 73.9263C107.692 74.0653 108.03 74.6548 107.866 74.9871C107.741 75.2405 107.421 75.2469 107.184 75.0932C106.413 74.5931 105.369 74.4685 104.57 74.7982C103.722 75.1486 103.292 75.8494 103.328 76.8007C103.36 77.6216 103.773 78.1937 104.504 78.5035C105.352 78.864 106.209 78.7421 107.06 78.4493C107.427 78.3224 107.409 78.0583 107.394 77.7739C107.373 77.3999 107.077 77.5471 106.884 77.5217C106.718 77.4997 106.534 77.476 106.38 77.5234C106.219 77.5718 106.085 77.599 105.972 77.6079C105.211 77.6683 106.187 76.6941 106.95 76.6843C107.795 76.6735 108.265 77.5548 108.517 78.3614C108.525 78.3892 108.535 78.4168 108.545 78.4442C108.671 78.7963 108.609 78.864 108.355 78.9893C107.141 79.5919 105.875 79.9287 104.518 79.6511C102.793 79.2973 101.889 78.1175 101.984 76.3995C102.067 74.9099 103.24 73.7911 104.89 73.6371C105.711 73.5609 106.518 73.6049 107.302 73.9079C107.318 73.9139 107.333 73.92 107.349 73.9263Z" fill="#0A0A0A"/>
<path d="M119.525 78.7372C119.578 79.1752 119.229 79.6053 118.788 79.6053C118.427 79.6053 118.172 79.3126 118.172 78.9515C118.172 77.5545 118.172 76.1651 118.172 74.7606C118.172 74.1877 118.611 73.7232 119.184 73.7232C119.479 73.7232 119.628 73.8486 119.587 74.1413C119.338 75.9542 119.409 76.0896 121.243 76.0066C121.804 75.9813 122.669 76.5331 122.93 75.619C123.021 75.2984 123.054 74.9425 123.021 74.5803C122.982 74.1524 123.324 73.708 123.754 73.708C124.093 73.708 124.321 73.9874 124.314 74.3266C124.275 76.0495 124.257 77.7577 124.357 79.4927C124.359 79.5356 124.334 79.6154 124.291 79.6154C124.235 79.6148 124.179 79.6141 124.123 79.6133C123.438 79.6039 122.954 79.0135 122.962 78.329C122.976 77.0443 122.967 77.0443 121.694 77.0443C121.639 77.0443 121.578 77.029 121.527 77.0459C120.896 77.2525 119.954 76.5601 119.636 77.4149C119.494 77.7999 119.467 78.2595 119.525 78.7372Z" fill="#0A0A0A"/>
<path d="M109.446 89.9086C107.808 89.9103 106.726 89.2603 106.212 87.9654C105.741 86.7789 106.032 85.3976 107.034 84.5835C108.297 83.5594 109.731 83.5543 111.17 84.1552C112.312 84.6326 112.906 85.7633 112.835 87.1157C112.749 88.7711 111.371 89.9069 109.446 89.9086ZM109.448 88.8845C110.677 88.8778 111.505 88.0365 111.488 86.8093C111.471 85.6312 110.645 84.8238 109.448 84.8137C108.214 84.8035 107.385 85.6245 107.383 86.8533C107.381 88.1042 108.182 88.8913 109.448 88.8845Z" fill="#B49050"/>
<path d="M97.3086 84.6802C97.0723 85.1582 96.4477 85.2632 95.9614 85.0444C95.3135 84.7528 94.6393 84.7355 93.9317 84.9408C93.0126 85.2066 92.5031 85.9666 92.5183 86.9111C92.5336 87.8556 93.0803 88.5716 94.0265 88.8018C94.7527 88.9795 95.4771 88.9118 96.1897 88.663C96.5164 88.5496 96.6078 88.3397 96.5807 88.0181C96.5486 87.6152 96.2541 87.71 96.0188 87.6999C95.7649 87.688 95.5008 87.6525 95.2605 87.71C94.8593 87.8065 94.6663 87.7794 94.6714 87.2801C94.6765 86.8112 94.8136 86.7469 95.2486 86.8332C95.6565 86.9128 96.0916 86.8518 96.513 86.8535C97.1521 86.8535 97.5135 87.5176 97.6136 88.1487C97.6291 88.246 97.6554 88.3399 97.6945 88.4294C97.9501 89.0151 97.6793 89.1403 97.2595 89.3265C96.3167 89.7446 95.3451 89.9579 94.3075 89.9122C92.4997 89.8309 91.2116 88.6579 91.1778 87.0228C91.1422 85.2201 92.3068 83.9794 94.1568 83.7983C95.1995 83.6967 96.1593 83.9896 97.1342 84.2756C97.4338 84.3636 97.4118 84.4737 97.3086 84.6802Z" fill="#B49050"/>
<path d="M131.888 78.9871C132.029 79.2902 131.801 79.635 131.467 79.6236C130.937 79.6049 130.289 79.8707 130.292 78.872C130.294 78.3371 129.857 78.0155 129.219 78.1103C128.806 78.1712 128.369 78.1712 127.954 78.112C127.162 77.9969 126.832 78.6063 126.895 79.0904C126.979 79.7471 126.681 79.6252 126.328 79.6252C125.844 79.623 125.525 79.1197 125.733 78.6826C126.411 77.256 127.072 75.8524 127.78 74.4728C127.931 74.1799 127.496 73.7906 127.897 73.7128C128.413 73.6129 128.961 73.6857 129.496 73.6925C129.55 73.6925 129.625 73.6688 129.642 73.8109C129.882 75.748 131.079 77.2495 131.888 78.9871ZM128.087 76.4145C127.898 76.8234 128.186 77.3048 128.636 77.2998C129.597 77.2893 129.475 77.0276 128.868 75.7304C128.775 75.534 128.489 75.5466 128.397 75.7439C128.292 75.9724 128.189 76.1933 128.087 76.4145Z" fill="#0A0A0A"/>
<path d="M121.288 87.0763C121.288 86.2621 121.402 85.4259 121.258 84.6372C121.112 83.8331 121.475 83.8331 122.038 83.8585C123.188 83.9076 124.344 83.7756 125.49 83.9432C126.531 84.0955 127.071 84.7032 127.06 85.6815C127.05 86.648 126.487 87.2608 125.437 87.3623C124.713 87.4334 123.98 87.4537 123.25 87.4419C122.766 87.4351 122.592 87.6162 122.631 88.0834C122.656 88.3898 122.566 88.7215 122.649 89.0059C122.881 89.8049 122.514 89.9013 121.837 89.8709C121.302 89.8472 121.146 89.7829 121.26 89.1752C121.385 88.4998 121.287 87.7787 121.288 87.0763ZM124.044 84.8187C124.033 84.8175 124.022 84.8255 124.021 84.8367C124.02 84.848 124.011 84.8572 124 84.8572C123.668 84.8568 123.336 84.8473 123.006 84.8589C122.5 84.8792 122.624 85.2821 122.649 85.5529C122.678 85.866 122.399 86.3924 122.983 86.4297C123.709 86.4754 124.447 86.5329 125.171 86.3721C125.564 86.2841 125.716 86.015 125.708 85.6257C125.699 85.2702 125.545 85.0163 125.193 84.9503C124.814 84.8821 124.427 84.8597 124.044 84.8187Z" fill="#B49050"/>
<path d="M118.544 84.2064C118.518 84.0594 118.596 83.8819 118.744 83.8726C119.819 83.7981 119.813 83.7998 119.802 84.873C119.792 85.8293 119.813 86.7857 119.796 87.742C119.772 89.064 119.213 89.7106 117.891 89.8579C117.224 89.9323 116.537 89.934 115.872 89.8596C114.506 89.7089 113.954 89.0725 113.89 87.698C113.836 86.5216 113.993 85.3385 113.802 84.1671C113.758 83.8997 113.88 83.8777 114.052 83.8709C114.389 83.8591 114.728 83.8608 115.065 83.8675C115.357 83.8743 115.318 83.9488 115.293 84.2568C115.2 85.4299 115.192 86.6164 115.256 87.7911C115.302 88.6375 115.957 88.954 117.209 88.8795C118.127 88.8236 118.555 88.4479 118.585 87.6286C118.607 87.0108 118.601 86.3913 118.592 85.7735C118.582 85.2533 118.634 84.7281 118.544 84.2064Z" fill="#B49050"/>
<path d="M134.016 62.8273C134.494 62.769 134.812 63.274 134.432 63.57C133.974 63.9263 133.432 64.0786 132.863 64.1713C130.737 64.52 128.731 63.9174 126.724 63.347C125.99 63.1381 125.262 62.9013 124.529 62.6897C123.979 62.5311 123.991 61.9641 124.557 62.0436C127.695 62.4837 130.808 63.2285 134.016 62.8273Z" fill="#B49050"/>
<path d="M114.649 79.5856C114.22 79.585 113.836 79.0734 113.843 78.6444C113.849 78.2975 113.797 77.9514 113.812 77.6132C113.847 76.7973 113.822 75.9798 113.819 75.1639C113.819 74.9456 113.869 74.6629 113.519 74.6866C113.117 74.7134 112.703 74.6408 112.294 74.671C111.937 74.6974 111.518 74.4306 111.518 74.0723C111.518 73.8039 111.748 73.6099 112.016 73.628C113.633 73.7375 115.244 73.7054 116.883 73.6426C117.143 73.6326 117.36 73.7757 117.36 74.0361C117.36 74.3827 116.97 74.6961 116.624 74.675C116.243 74.6519 115.852 74.707 115.467 74.6815C115.276 74.668 115.125 74.734 115.125 74.9506C115.122 76.3055 115.123 77.659 115.124 79.0392C115.124 79.3413 114.951 79.586 114.649 79.5856Z" fill="#0A0A0A"/>
<path d="M83.0569 62.8201C83.0547 62.8223 83.0562 62.826 83.0593 62.8261C84.6273 62.8604 86.1819 63.0609 87.7651 62.9021C89.7286 62.7057 91.66 62.335 93.6099 62.0676C94.8726 61.8949 96.132 61.9085 97.4032 62.0574C94.3259 62.1031 91.577 63.552 88.6115 64.0717C87.3589 64.2917 86.0979 64.4796 84.8453 64.1394C84.0988 63.9367 83.3068 63.729 83.0628 62.8217C83.0621 62.8191 83.0588 62.8181 83.0569 62.8201Z" fill="#B49050"/>
<path d="M90.2307 72.5833C90.3458 72.904 90.0377 73.3184 89.7628 73.117C89.3404 72.8077 89.8845 71.864 90.1236 72.3297C90.1639 72.4081 90.1987 72.4939 90.2307 72.5833Z" fill="#0A0A0A"/>
<path d="M113.676 63.1541C113.674 63.1522 113.672 63.1542 113.672 63.1569C113.664 63.1883 113.657 63.2202 113.65 63.252C113.644 63.2761 113.615 63.2857 113.597 63.2692C113.596 63.2688 113.596 63.2683 113.595 63.2679C113.581 63.2548 113.583 63.2319 113.599 63.2209C113.625 63.2033 113.651 63.1858 113.677 63.169C113.68 63.1671 113.679 63.1565 113.676 63.1541Z" fill="#B49050"/>
<path d="M83.0566 62.8219C83.0594 62.8196 83.0595 62.8154 83.0568 62.8131C83.0518 62.8085 83.0443 62.8148 83.048 62.8206C83.0499 62.8235 83.0539 62.8242 83.0566 62.8219Z" fill="#B49050"/>
</svg>
